%TF.GenerationSoftware,KiCad,Pcbnew,(5.1.6)-1*%
%TF.CreationDate,2021-04-07T17:56:13+02:00*%
%TF.ProjectId,port_expander,706f7274-5f65-4787-9061-6e6465722e6b,rev?*%
%TF.SameCoordinates,Original*%
%TF.FileFunction,Soldermask,Top*%
%TF.FilePolarity,Negative*%
%FSLAX46Y46*%
G04 Gerber Fmt 4.6, Leading zero omitted, Abs format (unit mm)*
G04 Created by KiCad (PCBNEW (5.1.6)-1) date 2021-04-07 17:56:13*
%MOMM*%
%LPD*%
G01*
G04 APERTURE LIST*
%ADD10R,1.800000X1.800000*%
%ADD11O,1.800000X1.800000*%
%ADD12R,1.650000X1.400000*%
%ADD13R,1.700000X3.200000*%
G04 APERTURE END LIST*
%TO.C,C1*%
G36*
G01*
X119858262Y-65885000D02*
X118901738Y-65885000D01*
G75*
G02*
X118630000Y-65613262I0J271738D01*
G01*
X118630000Y-64906738D01*
G75*
G02*
X118901738Y-64635000I271738J0D01*
G01*
X119858262Y-64635000D01*
G75*
G02*
X120130000Y-64906738I0J-271738D01*
G01*
X120130000Y-65613262D01*
G75*
G02*
X119858262Y-65885000I-271738J0D01*
G01*
G37*
G36*
G01*
X119858262Y-67935000D02*
X118901738Y-67935000D01*
G75*
G02*
X118630000Y-67663262I0J271738D01*
G01*
X118630000Y-66956738D01*
G75*
G02*
X118901738Y-66685000I271738J0D01*
G01*
X119858262Y-66685000D01*
G75*
G02*
X120130000Y-66956738I0J-271738D01*
G01*
X120130000Y-67663262D01*
G75*
G02*
X119858262Y-67935000I-271738J0D01*
G01*
G37*
%TD*%
%TO.C,C2*%
G36*
G01*
X114524262Y-80780000D02*
X113567738Y-80780000D01*
G75*
G02*
X113296000Y-80508262I0J271738D01*
G01*
X113296000Y-79801738D01*
G75*
G02*
X113567738Y-79530000I271738J0D01*
G01*
X114524262Y-79530000D01*
G75*
G02*
X114796000Y-79801738I0J-271738D01*
G01*
X114796000Y-80508262D01*
G75*
G02*
X114524262Y-80780000I-271738J0D01*
G01*
G37*
G36*
G01*
X114524262Y-78730000D02*
X113567738Y-78730000D01*
G75*
G02*
X113296000Y-78458262I0J271738D01*
G01*
X113296000Y-77751738D01*
G75*
G02*
X113567738Y-77480000I271738J0D01*
G01*
X114524262Y-77480000D01*
G75*
G02*
X114796000Y-77751738I0J-271738D01*
G01*
X114796000Y-78458262D01*
G75*
G02*
X114524262Y-78730000I-271738J0D01*
G01*
G37*
%TD*%
%TO.C,D1*%
G36*
G01*
X121763500Y-50877231D02*
X121763500Y-51738769D01*
G75*
G02*
X121494269Y-52008000I-269231J0D01*
G01*
X120607731Y-52008000D01*
G75*
G02*
X120338500Y-51738769I0J269231D01*
G01*
X120338500Y-50877231D01*
G75*
G02*
X120607731Y-50608000I269231J0D01*
G01*
X121494269Y-50608000D01*
G75*
G02*
X121763500Y-50877231I0J-269231D01*
G01*
G37*
G36*
G01*
X119838500Y-50877231D02*
X119838500Y-51738769D01*
G75*
G02*
X119569269Y-52008000I-269231J0D01*
G01*
X118682731Y-52008000D01*
G75*
G02*
X118413500Y-51738769I0J269231D01*
G01*
X118413500Y-50877231D01*
G75*
G02*
X118682731Y-50608000I269231J0D01*
G01*
X119569269Y-50608000D01*
G75*
G02*
X119838500Y-50877231I0J-269231D01*
G01*
G37*
%TD*%
D10*
%TO.C,J1*%
X139700000Y-72390000D03*
D11*
X139700000Y-69850000D03*
X139700000Y-67310000D03*
X139700000Y-64770000D03*
X139700000Y-62230000D03*
X139700000Y-59690000D03*
X139700000Y-57150000D03*
X139700000Y-54610000D03*
%TD*%
%TO.C,J2*%
X114300000Y-72390000D03*
X114300000Y-69850000D03*
X114300000Y-67310000D03*
X114300000Y-64770000D03*
X114300000Y-62230000D03*
X114300000Y-59690000D03*
X114300000Y-57150000D03*
D10*
X114300000Y-54610000D03*
%TD*%
%TO.C,J3*%
X137160000Y-48260000D03*
D11*
X139700000Y-48260000D03*
%TD*%
D10*
%TO.C,J4*%
X123190000Y-48260000D03*
D11*
X125730000Y-48260000D03*
X128270000Y-48260000D03*
X130810000Y-48260000D03*
%TD*%
%TO.C,R1*%
G36*
G01*
X121783000Y-52861738D02*
X121783000Y-53818262D01*
G75*
G02*
X121511262Y-54090000I-271738J0D01*
G01*
X120804738Y-54090000D01*
G75*
G02*
X120533000Y-53818262I0J271738D01*
G01*
X120533000Y-52861738D01*
G75*
G02*
X120804738Y-52590000I271738J0D01*
G01*
X121511262Y-52590000D01*
G75*
G02*
X121783000Y-52861738I0J-271738D01*
G01*
G37*
G36*
G01*
X119733000Y-52861738D02*
X119733000Y-53818262D01*
G75*
G02*
X119461262Y-54090000I-271738J0D01*
G01*
X118754738Y-54090000D01*
G75*
G02*
X118483000Y-53818262I0J271738D01*
G01*
X118483000Y-52861738D01*
G75*
G02*
X118754738Y-52590000I271738J0D01*
G01*
X119461262Y-52590000D01*
G75*
G02*
X119733000Y-52861738I0J-271738D01*
G01*
G37*
%TD*%
%TO.C,R2*%
G36*
G01*
X136535000Y-76678262D02*
X136535000Y-75721738D01*
G75*
G02*
X136806738Y-75450000I271738J0D01*
G01*
X137513262Y-75450000D01*
G75*
G02*
X137785000Y-75721738I0J-271738D01*
G01*
X137785000Y-76678262D01*
G75*
G02*
X137513262Y-76950000I-271738J0D01*
G01*
X136806738Y-76950000D01*
G75*
G02*
X136535000Y-76678262I0J271738D01*
G01*
G37*
G36*
G01*
X138585000Y-76678262D02*
X138585000Y-75721738D01*
G75*
G02*
X138856738Y-75450000I271738J0D01*
G01*
X139563262Y-75450000D01*
G75*
G02*
X139835000Y-75721738I0J-271738D01*
G01*
X139835000Y-76678262D01*
G75*
G02*
X139563262Y-76950000I-271738J0D01*
G01*
X138856738Y-76950000D01*
G75*
G02*
X138585000Y-76678262I0J271738D01*
G01*
G37*
%TD*%
%TO.C,R3*%
G36*
G01*
X138585000Y-79218262D02*
X138585000Y-78261738D01*
G75*
G02*
X138856738Y-77990000I271738J0D01*
G01*
X139563262Y-77990000D01*
G75*
G02*
X139835000Y-78261738I0J-271738D01*
G01*
X139835000Y-79218262D01*
G75*
G02*
X139563262Y-79490000I-271738J0D01*
G01*
X138856738Y-79490000D01*
G75*
G02*
X138585000Y-79218262I0J271738D01*
G01*
G37*
G36*
G01*
X136535000Y-79218262D02*
X136535000Y-78261738D01*
G75*
G02*
X136806738Y-77990000I271738J0D01*
G01*
X137513262Y-77990000D01*
G75*
G02*
X137785000Y-78261738I0J-271738D01*
G01*
X137785000Y-79218262D01*
G75*
G02*
X137513262Y-79490000I-271738J0D01*
G01*
X136806738Y-79490000D01*
G75*
G02*
X136535000Y-79218262I0J271738D01*
G01*
G37*
%TD*%
%TO.C,R4*%
G36*
G01*
X126267738Y-79530000D02*
X127224262Y-79530000D01*
G75*
G02*
X127496000Y-79801738I0J-271738D01*
G01*
X127496000Y-80508262D01*
G75*
G02*
X127224262Y-80780000I-271738J0D01*
G01*
X126267738Y-80780000D01*
G75*
G02*
X125996000Y-80508262I0J271738D01*
G01*
X125996000Y-79801738D01*
G75*
G02*
X126267738Y-79530000I271738J0D01*
G01*
G37*
G36*
G01*
X126267738Y-77480000D02*
X127224262Y-77480000D01*
G75*
G02*
X127496000Y-77751738I0J-271738D01*
G01*
X127496000Y-78458262D01*
G75*
G02*
X127224262Y-78730000I-271738J0D01*
G01*
X126267738Y-78730000D01*
G75*
G02*
X125996000Y-78458262I0J271738D01*
G01*
X125996000Y-77751738D01*
G75*
G02*
X126267738Y-77480000I271738J0D01*
G01*
G37*
%TD*%
%TO.C,R5*%
G36*
G01*
X136535000Y-81758262D02*
X136535000Y-80801738D01*
G75*
G02*
X136806738Y-80530000I271738J0D01*
G01*
X137513262Y-80530000D01*
G75*
G02*
X137785000Y-80801738I0J-271738D01*
G01*
X137785000Y-81758262D01*
G75*
G02*
X137513262Y-82030000I-271738J0D01*
G01*
X136806738Y-82030000D01*
G75*
G02*
X136535000Y-81758262I0J271738D01*
G01*
G37*
G36*
G01*
X138585000Y-81758262D02*
X138585000Y-80801738D01*
G75*
G02*
X138856738Y-80530000I271738J0D01*
G01*
X139563262Y-80530000D01*
G75*
G02*
X139835000Y-80801738I0J-271738D01*
G01*
X139835000Y-81758262D01*
G75*
G02*
X139563262Y-82030000I-271738J0D01*
G01*
X138856738Y-82030000D01*
G75*
G02*
X138585000Y-81758262I0J271738D01*
G01*
G37*
%TD*%
D12*
%TO.C,RST*%
X124371000Y-75855000D03*
X124371000Y-80355000D03*
X116421000Y-80355000D03*
X116421000Y-75855000D03*
%TD*%
D13*
%TO.C,SW2*%
X134620000Y-75565000D03*
X129540000Y-84455000D03*
X132080000Y-75565000D03*
X132080000Y-84455000D03*
X129540000Y-75565000D03*
X134620000Y-84455000D03*
%TD*%
%TO.C,U1*%
G36*
G01*
X121275000Y-55420000D02*
X121275000Y-55070000D01*
G75*
G02*
X121450000Y-54895000I175000J0D01*
G01*
X123250000Y-54895000D01*
G75*
G02*
X123425000Y-55070000I0J-175000D01*
G01*
X123425000Y-55420000D01*
G75*
G02*
X123250000Y-55595000I-175000J0D01*
G01*
X121450000Y-55595000D01*
G75*
G02*
X121275000Y-55420000I0J175000D01*
G01*
G37*
G36*
G01*
X121275000Y-56690000D02*
X121275000Y-56340000D01*
G75*
G02*
X121450000Y-56165000I175000J0D01*
G01*
X123250000Y-56165000D01*
G75*
G02*
X123425000Y-56340000I0J-175000D01*
G01*
X123425000Y-56690000D01*
G75*
G02*
X123250000Y-56865000I-175000J0D01*
G01*
X121450000Y-56865000D01*
G75*
G02*
X121275000Y-56690000I0J175000D01*
G01*
G37*
G36*
G01*
X121275000Y-57960000D02*
X121275000Y-57610000D01*
G75*
G02*
X121450000Y-57435000I175000J0D01*
G01*
X123250000Y-57435000D01*
G75*
G02*
X123425000Y-57610000I0J-175000D01*
G01*
X123425000Y-57960000D01*
G75*
G02*
X123250000Y-58135000I-175000J0D01*
G01*
X121450000Y-58135000D01*
G75*
G02*
X121275000Y-57960000I0J175000D01*
G01*
G37*
G36*
G01*
X121275000Y-59230000D02*
X121275000Y-58880000D01*
G75*
G02*
X121450000Y-58705000I175000J0D01*
G01*
X123250000Y-58705000D01*
G75*
G02*
X123425000Y-58880000I0J-175000D01*
G01*
X123425000Y-59230000D01*
G75*
G02*
X123250000Y-59405000I-175000J0D01*
G01*
X121450000Y-59405000D01*
G75*
G02*
X121275000Y-59230000I0J175000D01*
G01*
G37*
G36*
G01*
X121275000Y-60500000D02*
X121275000Y-60150000D01*
G75*
G02*
X121450000Y-59975000I175000J0D01*
G01*
X123250000Y-59975000D01*
G75*
G02*
X123425000Y-60150000I0J-175000D01*
G01*
X123425000Y-60500000D01*
G75*
G02*
X123250000Y-60675000I-175000J0D01*
G01*
X121450000Y-60675000D01*
G75*
G02*
X121275000Y-60500000I0J175000D01*
G01*
G37*
G36*
G01*
X121275000Y-61770000D02*
X121275000Y-61420000D01*
G75*
G02*
X121450000Y-61245000I175000J0D01*
G01*
X123250000Y-61245000D01*
G75*
G02*
X123425000Y-61420000I0J-175000D01*
G01*
X123425000Y-61770000D01*
G75*
G02*
X123250000Y-61945000I-175000J0D01*
G01*
X121450000Y-61945000D01*
G75*
G02*
X121275000Y-61770000I0J175000D01*
G01*
G37*
G36*
G01*
X121275000Y-63040000D02*
X121275000Y-62690000D01*
G75*
G02*
X121450000Y-62515000I175000J0D01*
G01*
X123250000Y-62515000D01*
G75*
G02*
X123425000Y-62690000I0J-175000D01*
G01*
X123425000Y-63040000D01*
G75*
G02*
X123250000Y-63215000I-175000J0D01*
G01*
X121450000Y-63215000D01*
G75*
G02*
X121275000Y-63040000I0J175000D01*
G01*
G37*
G36*
G01*
X121275000Y-64310000D02*
X121275000Y-63960000D01*
G75*
G02*
X121450000Y-63785000I175000J0D01*
G01*
X123250000Y-63785000D01*
G75*
G02*
X123425000Y-63960000I0J-175000D01*
G01*
X123425000Y-64310000D01*
G75*
G02*
X123250000Y-64485000I-175000J0D01*
G01*
X121450000Y-64485000D01*
G75*
G02*
X121275000Y-64310000I0J175000D01*
G01*
G37*
G36*
G01*
X121275000Y-65580000D02*
X121275000Y-65230000D01*
G75*
G02*
X121450000Y-65055000I175000J0D01*
G01*
X123250000Y-65055000D01*
G75*
G02*
X123425000Y-65230000I0J-175000D01*
G01*
X123425000Y-65580000D01*
G75*
G02*
X123250000Y-65755000I-175000J0D01*
G01*
X121450000Y-65755000D01*
G75*
G02*
X121275000Y-65580000I0J175000D01*
G01*
G37*
G36*
G01*
X121275000Y-66850000D02*
X121275000Y-66500000D01*
G75*
G02*
X121450000Y-66325000I175000J0D01*
G01*
X123250000Y-66325000D01*
G75*
G02*
X123425000Y-66500000I0J-175000D01*
G01*
X123425000Y-66850000D01*
G75*
G02*
X123250000Y-67025000I-175000J0D01*
G01*
X121450000Y-67025000D01*
G75*
G02*
X121275000Y-66850000I0J175000D01*
G01*
G37*
G36*
G01*
X121275000Y-68120000D02*
X121275000Y-67770000D01*
G75*
G02*
X121450000Y-67595000I175000J0D01*
G01*
X123250000Y-67595000D01*
G75*
G02*
X123425000Y-67770000I0J-175000D01*
G01*
X123425000Y-68120000D01*
G75*
G02*
X123250000Y-68295000I-175000J0D01*
G01*
X121450000Y-68295000D01*
G75*
G02*
X121275000Y-68120000I0J175000D01*
G01*
G37*
G36*
G01*
X121275000Y-69390000D02*
X121275000Y-69040000D01*
G75*
G02*
X121450000Y-68865000I175000J0D01*
G01*
X123250000Y-68865000D01*
G75*
G02*
X123425000Y-69040000I0J-175000D01*
G01*
X123425000Y-69390000D01*
G75*
G02*
X123250000Y-69565000I-175000J0D01*
G01*
X121450000Y-69565000D01*
G75*
G02*
X121275000Y-69390000I0J175000D01*
G01*
G37*
G36*
G01*
X121275000Y-70660000D02*
X121275000Y-70310000D01*
G75*
G02*
X121450000Y-70135000I175000J0D01*
G01*
X123250000Y-70135000D01*
G75*
G02*
X123425000Y-70310000I0J-175000D01*
G01*
X123425000Y-70660000D01*
G75*
G02*
X123250000Y-70835000I-175000J0D01*
G01*
X121450000Y-70835000D01*
G75*
G02*
X121275000Y-70660000I0J175000D01*
G01*
G37*
G36*
G01*
X121275000Y-71930000D02*
X121275000Y-71580000D01*
G75*
G02*
X121450000Y-71405000I175000J0D01*
G01*
X123250000Y-71405000D01*
G75*
G02*
X123425000Y-71580000I0J-175000D01*
G01*
X123425000Y-71930000D01*
G75*
G02*
X123250000Y-72105000I-175000J0D01*
G01*
X121450000Y-72105000D01*
G75*
G02*
X121275000Y-71930000I0J175000D01*
G01*
G37*
G36*
G01*
X130575000Y-71930000D02*
X130575000Y-71580000D01*
G75*
G02*
X130750000Y-71405000I175000J0D01*
G01*
X132550000Y-71405000D01*
G75*
G02*
X132725000Y-71580000I0J-175000D01*
G01*
X132725000Y-71930000D01*
G75*
G02*
X132550000Y-72105000I-175000J0D01*
G01*
X130750000Y-72105000D01*
G75*
G02*
X130575000Y-71930000I0J175000D01*
G01*
G37*
G36*
G01*
X130575000Y-70660000D02*
X130575000Y-70310000D01*
G75*
G02*
X130750000Y-70135000I175000J0D01*
G01*
X132550000Y-70135000D01*
G75*
G02*
X132725000Y-70310000I0J-175000D01*
G01*
X132725000Y-70660000D01*
G75*
G02*
X132550000Y-70835000I-175000J0D01*
G01*
X130750000Y-70835000D01*
G75*
G02*
X130575000Y-70660000I0J175000D01*
G01*
G37*
G36*
G01*
X130575000Y-69390000D02*
X130575000Y-69040000D01*
G75*
G02*
X130750000Y-68865000I175000J0D01*
G01*
X132550000Y-68865000D01*
G75*
G02*
X132725000Y-69040000I0J-175000D01*
G01*
X132725000Y-69390000D01*
G75*
G02*
X132550000Y-69565000I-175000J0D01*
G01*
X130750000Y-69565000D01*
G75*
G02*
X130575000Y-69390000I0J175000D01*
G01*
G37*
G36*
G01*
X130575000Y-68120000D02*
X130575000Y-67770000D01*
G75*
G02*
X130750000Y-67595000I175000J0D01*
G01*
X132550000Y-67595000D01*
G75*
G02*
X132725000Y-67770000I0J-175000D01*
G01*
X132725000Y-68120000D01*
G75*
G02*
X132550000Y-68295000I-175000J0D01*
G01*
X130750000Y-68295000D01*
G75*
G02*
X130575000Y-68120000I0J175000D01*
G01*
G37*
G36*
G01*
X130575000Y-66850000D02*
X130575000Y-66500000D01*
G75*
G02*
X130750000Y-66325000I175000J0D01*
G01*
X132550000Y-66325000D01*
G75*
G02*
X132725000Y-66500000I0J-175000D01*
G01*
X132725000Y-66850000D01*
G75*
G02*
X132550000Y-67025000I-175000J0D01*
G01*
X130750000Y-67025000D01*
G75*
G02*
X130575000Y-66850000I0J175000D01*
G01*
G37*
G36*
G01*
X130575000Y-65580000D02*
X130575000Y-65230000D01*
G75*
G02*
X130750000Y-65055000I175000J0D01*
G01*
X132550000Y-65055000D01*
G75*
G02*
X132725000Y-65230000I0J-175000D01*
G01*
X132725000Y-65580000D01*
G75*
G02*
X132550000Y-65755000I-175000J0D01*
G01*
X130750000Y-65755000D01*
G75*
G02*
X130575000Y-65580000I0J175000D01*
G01*
G37*
G36*
G01*
X130575000Y-64310000D02*
X130575000Y-63960000D01*
G75*
G02*
X130750000Y-63785000I175000J0D01*
G01*
X132550000Y-63785000D01*
G75*
G02*
X132725000Y-63960000I0J-175000D01*
G01*
X132725000Y-64310000D01*
G75*
G02*
X132550000Y-64485000I-175000J0D01*
G01*
X130750000Y-64485000D01*
G75*
G02*
X130575000Y-64310000I0J175000D01*
G01*
G37*
G36*
G01*
X130575000Y-63040000D02*
X130575000Y-62690000D01*
G75*
G02*
X130750000Y-62515000I175000J0D01*
G01*
X132550000Y-62515000D01*
G75*
G02*
X132725000Y-62690000I0J-175000D01*
G01*
X132725000Y-63040000D01*
G75*
G02*
X132550000Y-63215000I-175000J0D01*
G01*
X130750000Y-63215000D01*
G75*
G02*
X130575000Y-63040000I0J175000D01*
G01*
G37*
G36*
G01*
X130575000Y-61770000D02*
X130575000Y-61420000D01*
G75*
G02*
X130750000Y-61245000I175000J0D01*
G01*
X132550000Y-61245000D01*
G75*
G02*
X132725000Y-61420000I0J-175000D01*
G01*
X132725000Y-61770000D01*
G75*
G02*
X132550000Y-61945000I-175000J0D01*
G01*
X130750000Y-61945000D01*
G75*
G02*
X130575000Y-61770000I0J175000D01*
G01*
G37*
G36*
G01*
X130575000Y-60500000D02*
X130575000Y-60150000D01*
G75*
G02*
X130750000Y-59975000I175000J0D01*
G01*
X132550000Y-59975000D01*
G75*
G02*
X132725000Y-60150000I0J-175000D01*
G01*
X132725000Y-60500000D01*
G75*
G02*
X132550000Y-60675000I-175000J0D01*
G01*
X130750000Y-60675000D01*
G75*
G02*
X130575000Y-60500000I0J175000D01*
G01*
G37*
G36*
G01*
X130575000Y-59230000D02*
X130575000Y-58880000D01*
G75*
G02*
X130750000Y-58705000I175000J0D01*
G01*
X132550000Y-58705000D01*
G75*
G02*
X132725000Y-58880000I0J-175000D01*
G01*
X132725000Y-59230000D01*
G75*
G02*
X132550000Y-59405000I-175000J0D01*
G01*
X130750000Y-59405000D01*
G75*
G02*
X130575000Y-59230000I0J175000D01*
G01*
G37*
G36*
G01*
X130575000Y-57960000D02*
X130575000Y-57610000D01*
G75*
G02*
X130750000Y-57435000I175000J0D01*
G01*
X132550000Y-57435000D01*
G75*
G02*
X132725000Y-57610000I0J-175000D01*
G01*
X132725000Y-57960000D01*
G75*
G02*
X132550000Y-58135000I-175000J0D01*
G01*
X130750000Y-58135000D01*
G75*
G02*
X130575000Y-57960000I0J175000D01*
G01*
G37*
G36*
G01*
X130575000Y-56690000D02*
X130575000Y-56340000D01*
G75*
G02*
X130750000Y-56165000I175000J0D01*
G01*
X132550000Y-56165000D01*
G75*
G02*
X132725000Y-56340000I0J-175000D01*
G01*
X132725000Y-56690000D01*
G75*
G02*
X132550000Y-56865000I-175000J0D01*
G01*
X130750000Y-56865000D01*
G75*
G02*
X130575000Y-56690000I0J175000D01*
G01*
G37*
G36*
G01*
X130575000Y-55420000D02*
X130575000Y-55070000D01*
G75*
G02*
X130750000Y-54895000I175000J0D01*
G01*
X132550000Y-54895000D01*
G75*
G02*
X132725000Y-55070000I0J-175000D01*
G01*
X132725000Y-55420000D01*
G75*
G02*
X132550000Y-55595000I-175000J0D01*
G01*
X130750000Y-55595000D01*
G75*
G02*
X130575000Y-55420000I0J175000D01*
G01*
G37*
%TD*%
D10*
%TO.C,J5*%
X114300000Y-48260000D03*
D11*
X116840000Y-48260000D03*
%TD*%
M02*
