%TF.GenerationSoftware,KiCad,Pcbnew,(5.1.6)-1*%
%TF.CreationDate,2021-04-07T17:56:13+02:00*%
%TF.ProjectId,port_expander,706f7274-5f65-4787-9061-6e6465722e6b,rev?*%
%TF.SameCoordinates,Original*%
%TF.FileFunction,Paste,Top*%
%TF.FilePolarity,Positive*%
%FSLAX46Y46*%
G04 Gerber Fmt 4.6, Leading zero omitted, Abs format (unit mm)*
G04 Created by KiCad (PCBNEW (5.1.6)-1) date 2021-04-07 17:56:13*
%MOMM*%
%LPD*%
G01*
G04 APERTURE LIST*
%ADD10R,1.550000X1.300000*%
%ADD11R,1.600000X3.100000*%
G04 APERTURE END LIST*
%TO.C,C1*%
G36*
G01*
X119830001Y-65835000D02*
X118929999Y-65835000D01*
G75*
G02*
X118680000Y-65585001I0J249999D01*
G01*
X118680000Y-64934999D01*
G75*
G02*
X118929999Y-64685000I249999J0D01*
G01*
X119830001Y-64685000D01*
G75*
G02*
X120080000Y-64934999I0J-249999D01*
G01*
X120080000Y-65585001D01*
G75*
G02*
X119830001Y-65835000I-249999J0D01*
G01*
G37*
G36*
G01*
X119830001Y-67885000D02*
X118929999Y-67885000D01*
G75*
G02*
X118680000Y-67635001I0J249999D01*
G01*
X118680000Y-66984999D01*
G75*
G02*
X118929999Y-66735000I249999J0D01*
G01*
X119830001Y-66735000D01*
G75*
G02*
X120080000Y-66984999I0J-249999D01*
G01*
X120080000Y-67635001D01*
G75*
G02*
X119830001Y-67885000I-249999J0D01*
G01*
G37*
%TD*%
%TO.C,C2*%
G36*
G01*
X114496001Y-80730000D02*
X113595999Y-80730000D01*
G75*
G02*
X113346000Y-80480001I0J249999D01*
G01*
X113346000Y-79829999D01*
G75*
G02*
X113595999Y-79580000I249999J0D01*
G01*
X114496001Y-79580000D01*
G75*
G02*
X114746000Y-79829999I0J-249999D01*
G01*
X114746000Y-80480001D01*
G75*
G02*
X114496001Y-80730000I-249999J0D01*
G01*
G37*
G36*
G01*
X114496001Y-78680000D02*
X113595999Y-78680000D01*
G75*
G02*
X113346000Y-78430001I0J249999D01*
G01*
X113346000Y-77779999D01*
G75*
G02*
X113595999Y-77530000I249999J0D01*
G01*
X114496001Y-77530000D01*
G75*
G02*
X114746000Y-77779999I0J-249999D01*
G01*
X114746000Y-78430001D01*
G75*
G02*
X114496001Y-78680000I-249999J0D01*
G01*
G37*
%TD*%
%TO.C,D1*%
G36*
G01*
X121713500Y-50908000D02*
X121713500Y-51708000D01*
G75*
G02*
X121463500Y-51958000I-250000J0D01*
G01*
X120638500Y-51958000D01*
G75*
G02*
X120388500Y-51708000I0J250000D01*
G01*
X120388500Y-50908000D01*
G75*
G02*
X120638500Y-50658000I250000J0D01*
G01*
X121463500Y-50658000D01*
G75*
G02*
X121713500Y-50908000I0J-250000D01*
G01*
G37*
G36*
G01*
X119788500Y-50908000D02*
X119788500Y-51708000D01*
G75*
G02*
X119538500Y-51958000I-250000J0D01*
G01*
X118713500Y-51958000D01*
G75*
G02*
X118463500Y-51708000I0J250000D01*
G01*
X118463500Y-50908000D01*
G75*
G02*
X118713500Y-50658000I250000J0D01*
G01*
X119538500Y-50658000D01*
G75*
G02*
X119788500Y-50908000I0J-250000D01*
G01*
G37*
%TD*%
%TO.C,R1*%
G36*
G01*
X121733000Y-52889999D02*
X121733000Y-53790001D01*
G75*
G02*
X121483001Y-54040000I-249999J0D01*
G01*
X120832999Y-54040000D01*
G75*
G02*
X120583000Y-53790001I0J249999D01*
G01*
X120583000Y-52889999D01*
G75*
G02*
X120832999Y-52640000I249999J0D01*
G01*
X121483001Y-52640000D01*
G75*
G02*
X121733000Y-52889999I0J-249999D01*
G01*
G37*
G36*
G01*
X119683000Y-52889999D02*
X119683000Y-53790001D01*
G75*
G02*
X119433001Y-54040000I-249999J0D01*
G01*
X118782999Y-54040000D01*
G75*
G02*
X118533000Y-53790001I0J249999D01*
G01*
X118533000Y-52889999D01*
G75*
G02*
X118782999Y-52640000I249999J0D01*
G01*
X119433001Y-52640000D01*
G75*
G02*
X119683000Y-52889999I0J-249999D01*
G01*
G37*
%TD*%
%TO.C,R2*%
G36*
G01*
X136585000Y-76650001D02*
X136585000Y-75749999D01*
G75*
G02*
X136834999Y-75500000I249999J0D01*
G01*
X137485001Y-75500000D01*
G75*
G02*
X137735000Y-75749999I0J-249999D01*
G01*
X137735000Y-76650001D01*
G75*
G02*
X137485001Y-76900000I-249999J0D01*
G01*
X136834999Y-76900000D01*
G75*
G02*
X136585000Y-76650001I0J249999D01*
G01*
G37*
G36*
G01*
X138635000Y-76650001D02*
X138635000Y-75749999D01*
G75*
G02*
X138884999Y-75500000I249999J0D01*
G01*
X139535001Y-75500000D01*
G75*
G02*
X139785000Y-75749999I0J-249999D01*
G01*
X139785000Y-76650001D01*
G75*
G02*
X139535001Y-76900000I-249999J0D01*
G01*
X138884999Y-76900000D01*
G75*
G02*
X138635000Y-76650001I0J249999D01*
G01*
G37*
%TD*%
%TO.C,R3*%
G36*
G01*
X138635000Y-79190001D02*
X138635000Y-78289999D01*
G75*
G02*
X138884999Y-78040000I249999J0D01*
G01*
X139535001Y-78040000D01*
G75*
G02*
X139785000Y-78289999I0J-249999D01*
G01*
X139785000Y-79190001D01*
G75*
G02*
X139535001Y-79440000I-249999J0D01*
G01*
X138884999Y-79440000D01*
G75*
G02*
X138635000Y-79190001I0J249999D01*
G01*
G37*
G36*
G01*
X136585000Y-79190001D02*
X136585000Y-78289999D01*
G75*
G02*
X136834999Y-78040000I249999J0D01*
G01*
X137485001Y-78040000D01*
G75*
G02*
X137735000Y-78289999I0J-249999D01*
G01*
X137735000Y-79190001D01*
G75*
G02*
X137485001Y-79440000I-249999J0D01*
G01*
X136834999Y-79440000D01*
G75*
G02*
X136585000Y-79190001I0J249999D01*
G01*
G37*
%TD*%
%TO.C,R4*%
G36*
G01*
X126295999Y-79580000D02*
X127196001Y-79580000D01*
G75*
G02*
X127446000Y-79829999I0J-249999D01*
G01*
X127446000Y-80480001D01*
G75*
G02*
X127196001Y-80730000I-249999J0D01*
G01*
X126295999Y-80730000D01*
G75*
G02*
X126046000Y-80480001I0J249999D01*
G01*
X126046000Y-79829999D01*
G75*
G02*
X126295999Y-79580000I249999J0D01*
G01*
G37*
G36*
G01*
X126295999Y-77530000D02*
X127196001Y-77530000D01*
G75*
G02*
X127446000Y-77779999I0J-249999D01*
G01*
X127446000Y-78430001D01*
G75*
G02*
X127196001Y-78680000I-249999J0D01*
G01*
X126295999Y-78680000D01*
G75*
G02*
X126046000Y-78430001I0J249999D01*
G01*
X126046000Y-77779999D01*
G75*
G02*
X126295999Y-77530000I249999J0D01*
G01*
G37*
%TD*%
%TO.C,R5*%
G36*
G01*
X136585000Y-81730001D02*
X136585000Y-80829999D01*
G75*
G02*
X136834999Y-80580000I249999J0D01*
G01*
X137485001Y-80580000D01*
G75*
G02*
X137735000Y-80829999I0J-249999D01*
G01*
X137735000Y-81730001D01*
G75*
G02*
X137485001Y-81980000I-249999J0D01*
G01*
X136834999Y-81980000D01*
G75*
G02*
X136585000Y-81730001I0J249999D01*
G01*
G37*
G36*
G01*
X138635000Y-81730001D02*
X138635000Y-80829999D01*
G75*
G02*
X138884999Y-80580000I249999J0D01*
G01*
X139535001Y-80580000D01*
G75*
G02*
X139785000Y-80829999I0J-249999D01*
G01*
X139785000Y-81730001D01*
G75*
G02*
X139535001Y-81980000I-249999J0D01*
G01*
X138884999Y-81980000D01*
G75*
G02*
X138635000Y-81730001I0J249999D01*
G01*
G37*
%TD*%
D10*
%TO.C,RST*%
X124371000Y-75855000D03*
X124371000Y-80355000D03*
X116421000Y-80355000D03*
X116421000Y-75855000D03*
%TD*%
D11*
%TO.C,SW2*%
X134620000Y-75565000D03*
X129540000Y-84455000D03*
X132080000Y-75565000D03*
X132080000Y-84455000D03*
X129540000Y-75565000D03*
X134620000Y-84455000D03*
%TD*%
%TO.C,U1*%
G36*
G01*
X121325000Y-55395000D02*
X121325000Y-55095000D01*
G75*
G02*
X121475000Y-54945000I150000J0D01*
G01*
X123225000Y-54945000D01*
G75*
G02*
X123375000Y-55095000I0J-150000D01*
G01*
X123375000Y-55395000D01*
G75*
G02*
X123225000Y-55545000I-150000J0D01*
G01*
X121475000Y-55545000D01*
G75*
G02*
X121325000Y-55395000I0J150000D01*
G01*
G37*
G36*
G01*
X121325000Y-56665000D02*
X121325000Y-56365000D01*
G75*
G02*
X121475000Y-56215000I150000J0D01*
G01*
X123225000Y-56215000D01*
G75*
G02*
X123375000Y-56365000I0J-150000D01*
G01*
X123375000Y-56665000D01*
G75*
G02*
X123225000Y-56815000I-150000J0D01*
G01*
X121475000Y-56815000D01*
G75*
G02*
X121325000Y-56665000I0J150000D01*
G01*
G37*
G36*
G01*
X121325000Y-57935000D02*
X121325000Y-57635000D01*
G75*
G02*
X121475000Y-57485000I150000J0D01*
G01*
X123225000Y-57485000D01*
G75*
G02*
X123375000Y-57635000I0J-150000D01*
G01*
X123375000Y-57935000D01*
G75*
G02*
X123225000Y-58085000I-150000J0D01*
G01*
X121475000Y-58085000D01*
G75*
G02*
X121325000Y-57935000I0J150000D01*
G01*
G37*
G36*
G01*
X121325000Y-59205000D02*
X121325000Y-58905000D01*
G75*
G02*
X121475000Y-58755000I150000J0D01*
G01*
X123225000Y-58755000D01*
G75*
G02*
X123375000Y-58905000I0J-150000D01*
G01*
X123375000Y-59205000D01*
G75*
G02*
X123225000Y-59355000I-150000J0D01*
G01*
X121475000Y-59355000D01*
G75*
G02*
X121325000Y-59205000I0J150000D01*
G01*
G37*
G36*
G01*
X121325000Y-60475000D02*
X121325000Y-60175000D01*
G75*
G02*
X121475000Y-60025000I150000J0D01*
G01*
X123225000Y-60025000D01*
G75*
G02*
X123375000Y-60175000I0J-150000D01*
G01*
X123375000Y-60475000D01*
G75*
G02*
X123225000Y-60625000I-150000J0D01*
G01*
X121475000Y-60625000D01*
G75*
G02*
X121325000Y-60475000I0J150000D01*
G01*
G37*
G36*
G01*
X121325000Y-61745000D02*
X121325000Y-61445000D01*
G75*
G02*
X121475000Y-61295000I150000J0D01*
G01*
X123225000Y-61295000D01*
G75*
G02*
X123375000Y-61445000I0J-150000D01*
G01*
X123375000Y-61745000D01*
G75*
G02*
X123225000Y-61895000I-150000J0D01*
G01*
X121475000Y-61895000D01*
G75*
G02*
X121325000Y-61745000I0J150000D01*
G01*
G37*
G36*
G01*
X121325000Y-63015000D02*
X121325000Y-62715000D01*
G75*
G02*
X121475000Y-62565000I150000J0D01*
G01*
X123225000Y-62565000D01*
G75*
G02*
X123375000Y-62715000I0J-150000D01*
G01*
X123375000Y-63015000D01*
G75*
G02*
X123225000Y-63165000I-150000J0D01*
G01*
X121475000Y-63165000D01*
G75*
G02*
X121325000Y-63015000I0J150000D01*
G01*
G37*
G36*
G01*
X121325000Y-64285000D02*
X121325000Y-63985000D01*
G75*
G02*
X121475000Y-63835000I150000J0D01*
G01*
X123225000Y-63835000D01*
G75*
G02*
X123375000Y-63985000I0J-150000D01*
G01*
X123375000Y-64285000D01*
G75*
G02*
X123225000Y-64435000I-150000J0D01*
G01*
X121475000Y-64435000D01*
G75*
G02*
X121325000Y-64285000I0J150000D01*
G01*
G37*
G36*
G01*
X121325000Y-65555000D02*
X121325000Y-65255000D01*
G75*
G02*
X121475000Y-65105000I150000J0D01*
G01*
X123225000Y-65105000D01*
G75*
G02*
X123375000Y-65255000I0J-150000D01*
G01*
X123375000Y-65555000D01*
G75*
G02*
X123225000Y-65705000I-150000J0D01*
G01*
X121475000Y-65705000D01*
G75*
G02*
X121325000Y-65555000I0J150000D01*
G01*
G37*
G36*
G01*
X121325000Y-66825000D02*
X121325000Y-66525000D01*
G75*
G02*
X121475000Y-66375000I150000J0D01*
G01*
X123225000Y-66375000D01*
G75*
G02*
X123375000Y-66525000I0J-150000D01*
G01*
X123375000Y-66825000D01*
G75*
G02*
X123225000Y-66975000I-150000J0D01*
G01*
X121475000Y-66975000D01*
G75*
G02*
X121325000Y-66825000I0J150000D01*
G01*
G37*
G36*
G01*
X121325000Y-68095000D02*
X121325000Y-67795000D01*
G75*
G02*
X121475000Y-67645000I150000J0D01*
G01*
X123225000Y-67645000D01*
G75*
G02*
X123375000Y-67795000I0J-150000D01*
G01*
X123375000Y-68095000D01*
G75*
G02*
X123225000Y-68245000I-150000J0D01*
G01*
X121475000Y-68245000D01*
G75*
G02*
X121325000Y-68095000I0J150000D01*
G01*
G37*
G36*
G01*
X121325000Y-69365000D02*
X121325000Y-69065000D01*
G75*
G02*
X121475000Y-68915000I150000J0D01*
G01*
X123225000Y-68915000D01*
G75*
G02*
X123375000Y-69065000I0J-150000D01*
G01*
X123375000Y-69365000D01*
G75*
G02*
X123225000Y-69515000I-150000J0D01*
G01*
X121475000Y-69515000D01*
G75*
G02*
X121325000Y-69365000I0J150000D01*
G01*
G37*
G36*
G01*
X121325000Y-70635000D02*
X121325000Y-70335000D01*
G75*
G02*
X121475000Y-70185000I150000J0D01*
G01*
X123225000Y-70185000D01*
G75*
G02*
X123375000Y-70335000I0J-150000D01*
G01*
X123375000Y-70635000D01*
G75*
G02*
X123225000Y-70785000I-150000J0D01*
G01*
X121475000Y-70785000D01*
G75*
G02*
X121325000Y-70635000I0J150000D01*
G01*
G37*
G36*
G01*
X121325000Y-71905000D02*
X121325000Y-71605000D01*
G75*
G02*
X121475000Y-71455000I150000J0D01*
G01*
X123225000Y-71455000D01*
G75*
G02*
X123375000Y-71605000I0J-150000D01*
G01*
X123375000Y-71905000D01*
G75*
G02*
X123225000Y-72055000I-150000J0D01*
G01*
X121475000Y-72055000D01*
G75*
G02*
X121325000Y-71905000I0J150000D01*
G01*
G37*
G36*
G01*
X130625000Y-71905000D02*
X130625000Y-71605000D01*
G75*
G02*
X130775000Y-71455000I150000J0D01*
G01*
X132525000Y-71455000D01*
G75*
G02*
X132675000Y-71605000I0J-150000D01*
G01*
X132675000Y-71905000D01*
G75*
G02*
X132525000Y-72055000I-150000J0D01*
G01*
X130775000Y-72055000D01*
G75*
G02*
X130625000Y-71905000I0J150000D01*
G01*
G37*
G36*
G01*
X130625000Y-70635000D02*
X130625000Y-70335000D01*
G75*
G02*
X130775000Y-70185000I150000J0D01*
G01*
X132525000Y-70185000D01*
G75*
G02*
X132675000Y-70335000I0J-150000D01*
G01*
X132675000Y-70635000D01*
G75*
G02*
X132525000Y-70785000I-150000J0D01*
G01*
X130775000Y-70785000D01*
G75*
G02*
X130625000Y-70635000I0J150000D01*
G01*
G37*
G36*
G01*
X130625000Y-69365000D02*
X130625000Y-69065000D01*
G75*
G02*
X130775000Y-68915000I150000J0D01*
G01*
X132525000Y-68915000D01*
G75*
G02*
X132675000Y-69065000I0J-150000D01*
G01*
X132675000Y-69365000D01*
G75*
G02*
X132525000Y-69515000I-150000J0D01*
G01*
X130775000Y-69515000D01*
G75*
G02*
X130625000Y-69365000I0J150000D01*
G01*
G37*
G36*
G01*
X130625000Y-68095000D02*
X130625000Y-67795000D01*
G75*
G02*
X130775000Y-67645000I150000J0D01*
G01*
X132525000Y-67645000D01*
G75*
G02*
X132675000Y-67795000I0J-150000D01*
G01*
X132675000Y-68095000D01*
G75*
G02*
X132525000Y-68245000I-150000J0D01*
G01*
X130775000Y-68245000D01*
G75*
G02*
X130625000Y-68095000I0J150000D01*
G01*
G37*
G36*
G01*
X130625000Y-66825000D02*
X130625000Y-66525000D01*
G75*
G02*
X130775000Y-66375000I150000J0D01*
G01*
X132525000Y-66375000D01*
G75*
G02*
X132675000Y-66525000I0J-150000D01*
G01*
X132675000Y-66825000D01*
G75*
G02*
X132525000Y-66975000I-150000J0D01*
G01*
X130775000Y-66975000D01*
G75*
G02*
X130625000Y-66825000I0J150000D01*
G01*
G37*
G36*
G01*
X130625000Y-65555000D02*
X130625000Y-65255000D01*
G75*
G02*
X130775000Y-65105000I150000J0D01*
G01*
X132525000Y-65105000D01*
G75*
G02*
X132675000Y-65255000I0J-150000D01*
G01*
X132675000Y-65555000D01*
G75*
G02*
X132525000Y-65705000I-150000J0D01*
G01*
X130775000Y-65705000D01*
G75*
G02*
X130625000Y-65555000I0J150000D01*
G01*
G37*
G36*
G01*
X130625000Y-64285000D02*
X130625000Y-63985000D01*
G75*
G02*
X130775000Y-63835000I150000J0D01*
G01*
X132525000Y-63835000D01*
G75*
G02*
X132675000Y-63985000I0J-150000D01*
G01*
X132675000Y-64285000D01*
G75*
G02*
X132525000Y-64435000I-150000J0D01*
G01*
X130775000Y-64435000D01*
G75*
G02*
X130625000Y-64285000I0J150000D01*
G01*
G37*
G36*
G01*
X130625000Y-63015000D02*
X130625000Y-62715000D01*
G75*
G02*
X130775000Y-62565000I150000J0D01*
G01*
X132525000Y-62565000D01*
G75*
G02*
X132675000Y-62715000I0J-150000D01*
G01*
X132675000Y-63015000D01*
G75*
G02*
X132525000Y-63165000I-150000J0D01*
G01*
X130775000Y-63165000D01*
G75*
G02*
X130625000Y-63015000I0J150000D01*
G01*
G37*
G36*
G01*
X130625000Y-61745000D02*
X130625000Y-61445000D01*
G75*
G02*
X130775000Y-61295000I150000J0D01*
G01*
X132525000Y-61295000D01*
G75*
G02*
X132675000Y-61445000I0J-150000D01*
G01*
X132675000Y-61745000D01*
G75*
G02*
X132525000Y-61895000I-150000J0D01*
G01*
X130775000Y-61895000D01*
G75*
G02*
X130625000Y-61745000I0J150000D01*
G01*
G37*
G36*
G01*
X130625000Y-60475000D02*
X130625000Y-60175000D01*
G75*
G02*
X130775000Y-60025000I150000J0D01*
G01*
X132525000Y-60025000D01*
G75*
G02*
X132675000Y-60175000I0J-150000D01*
G01*
X132675000Y-60475000D01*
G75*
G02*
X132525000Y-60625000I-150000J0D01*
G01*
X130775000Y-60625000D01*
G75*
G02*
X130625000Y-60475000I0J150000D01*
G01*
G37*
G36*
G01*
X130625000Y-59205000D02*
X130625000Y-58905000D01*
G75*
G02*
X130775000Y-58755000I150000J0D01*
G01*
X132525000Y-58755000D01*
G75*
G02*
X132675000Y-58905000I0J-150000D01*
G01*
X132675000Y-59205000D01*
G75*
G02*
X132525000Y-59355000I-150000J0D01*
G01*
X130775000Y-59355000D01*
G75*
G02*
X130625000Y-59205000I0J150000D01*
G01*
G37*
G36*
G01*
X130625000Y-57935000D02*
X130625000Y-57635000D01*
G75*
G02*
X130775000Y-57485000I150000J0D01*
G01*
X132525000Y-57485000D01*
G75*
G02*
X132675000Y-57635000I0J-150000D01*
G01*
X132675000Y-57935000D01*
G75*
G02*
X132525000Y-58085000I-150000J0D01*
G01*
X130775000Y-58085000D01*
G75*
G02*
X130625000Y-57935000I0J150000D01*
G01*
G37*
G36*
G01*
X130625000Y-56665000D02*
X130625000Y-56365000D01*
G75*
G02*
X130775000Y-56215000I150000J0D01*
G01*
X132525000Y-56215000D01*
G75*
G02*
X132675000Y-56365000I0J-150000D01*
G01*
X132675000Y-56665000D01*
G75*
G02*
X132525000Y-56815000I-150000J0D01*
G01*
X130775000Y-56815000D01*
G75*
G02*
X130625000Y-56665000I0J150000D01*
G01*
G37*
G36*
G01*
X130625000Y-55395000D02*
X130625000Y-55095000D01*
G75*
G02*
X130775000Y-54945000I150000J0D01*
G01*
X132525000Y-54945000D01*
G75*
G02*
X132675000Y-55095000I0J-150000D01*
G01*
X132675000Y-55395000D01*
G75*
G02*
X132525000Y-55545000I-150000J0D01*
G01*
X130775000Y-55545000D01*
G75*
G02*
X130625000Y-55395000I0J150000D01*
G01*
G37*
%TD*%
M02*
