%TF.GenerationSoftware,KiCad,Pcbnew,(5.1.6)-1*%
%TF.CreationDate,2021-04-07T17:56:13+02:00*%
%TF.ProjectId,port_expander,706f7274-5f65-4787-9061-6e6465722e6b,rev?*%
%TF.SameCoordinates,Original*%
%TF.FileFunction,Legend,Top*%
%TF.FilePolarity,Positive*%
%FSLAX46Y46*%
G04 Gerber Fmt 4.6, Leading zero omitted, Abs format (unit mm)*
G04 Created by KiCad (PCBNEW (5.1.6)-1) date 2021-04-07 17:56:13*
%MOMM*%
%LPD*%
G01*
G04 APERTURE LIST*
%ADD10C,0.120000*%
%ADD11C,0.150000*%
G04 APERTURE END LIST*
D10*
X126589285Y-67089428D02*
X127125000Y-67089428D01*
X127232142Y-67125142D01*
X127303571Y-67196571D01*
X127339285Y-67303714D01*
X127339285Y-67375142D01*
X127339285Y-66375142D02*
X127339285Y-66732285D01*
X126589285Y-66732285D01*
X127267857Y-65696571D02*
X127303571Y-65732285D01*
X127339285Y-65839428D01*
X127339285Y-65910857D01*
X127303571Y-66018000D01*
X127232142Y-66089428D01*
X127160714Y-66125142D01*
X127017857Y-66160857D01*
X126910714Y-66160857D01*
X126767857Y-66125142D01*
X126696428Y-66089428D01*
X126625000Y-66018000D01*
X126589285Y-65910857D01*
X126589285Y-65839428D01*
X126625000Y-65732285D01*
X126660714Y-65696571D01*
X126589285Y-65160857D02*
X127125000Y-65160857D01*
X127232142Y-65196571D01*
X127303571Y-65268000D01*
X127339285Y-65375142D01*
X127339285Y-65446571D01*
X127339285Y-64446571D02*
X127339285Y-64803714D01*
X126589285Y-64803714D01*
X127267857Y-63768000D02*
X127303571Y-63803714D01*
X127339285Y-63910857D01*
X127339285Y-63982285D01*
X127303571Y-64089428D01*
X127232142Y-64160857D01*
X127160714Y-64196571D01*
X127017857Y-64232285D01*
X126910714Y-64232285D01*
X126767857Y-64196571D01*
X126696428Y-64160857D01*
X126625000Y-64089428D01*
X126589285Y-63982285D01*
X126589285Y-63910857D01*
X126625000Y-63803714D01*
X126660714Y-63768000D01*
X126589285Y-63232285D02*
X127125000Y-63232285D01*
X127232142Y-63268000D01*
X127303571Y-63339428D01*
X127339285Y-63446571D01*
X127339285Y-63518000D01*
X127339285Y-62518000D02*
X127339285Y-62875142D01*
X126589285Y-62875142D01*
X127267857Y-61839428D02*
X127303571Y-61875142D01*
X127339285Y-61982285D01*
X127339285Y-62053714D01*
X127303571Y-62160857D01*
X127232142Y-62232285D01*
X127160714Y-62268000D01*
X127017857Y-62303714D01*
X126910714Y-62303714D01*
X126767857Y-62268000D01*
X126696428Y-62232285D01*
X126625000Y-62160857D01*
X126589285Y-62053714D01*
X126589285Y-61982285D01*
X126625000Y-61875142D01*
X126660714Y-61839428D01*
X126589285Y-61303714D02*
X127125000Y-61303714D01*
X127232142Y-61339428D01*
X127303571Y-61410857D01*
X127339285Y-61518000D01*
X127339285Y-61589428D01*
X127339285Y-60589428D02*
X127339285Y-60946571D01*
X126589285Y-60946571D01*
X127267857Y-59910857D02*
X127303571Y-59946571D01*
X127339285Y-60053714D01*
X127339285Y-60125142D01*
X127303571Y-60232285D01*
X127232142Y-60303714D01*
X127160714Y-60339428D01*
X127017857Y-60375142D01*
X126910714Y-60375142D01*
X126767857Y-60339428D01*
X126696428Y-60303714D01*
X126625000Y-60232285D01*
X126589285Y-60125142D01*
X126589285Y-60053714D01*
X126625000Y-59946571D01*
X126660714Y-59910857D01*
D11*
X113752380Y-52897404D02*
X114752380Y-52564071D01*
X113752380Y-52230738D01*
X114657142Y-51325976D02*
X114704761Y-51373595D01*
X114752380Y-51516452D01*
X114752380Y-51611690D01*
X114704761Y-51754547D01*
X114609523Y-51849785D01*
X114514285Y-51897404D01*
X114323809Y-51945023D01*
X114180952Y-51945023D01*
X113990476Y-51897404D01*
X113895238Y-51849785D01*
X113800000Y-51754547D01*
X113752380Y-51611690D01*
X113752380Y-51516452D01*
X113800000Y-51373595D01*
X113847619Y-51325976D01*
X114657142Y-50325976D02*
X114704761Y-50373595D01*
X114752380Y-50516452D01*
X114752380Y-50611690D01*
X114704761Y-50754547D01*
X114609523Y-50849785D01*
X114514285Y-50897404D01*
X114323809Y-50945023D01*
X114180952Y-50945023D01*
X113990476Y-50897404D01*
X113895238Y-50849785D01*
X113800000Y-50754547D01*
X113752380Y-50611690D01*
X113752380Y-50516452D01*
X113800000Y-50373595D01*
X113847619Y-50325976D01*
X116340000Y-52421214D02*
X116292380Y-52516452D01*
X116292380Y-52659309D01*
X116340000Y-52802166D01*
X116435238Y-52897404D01*
X116530476Y-52945023D01*
X116720952Y-52992642D01*
X116863809Y-52992642D01*
X117054285Y-52945023D01*
X117149523Y-52897404D01*
X117244761Y-52802166D01*
X117292380Y-52659309D01*
X117292380Y-52564071D01*
X117244761Y-52421214D01*
X117197142Y-52373595D01*
X116863809Y-52373595D01*
X116863809Y-52564071D01*
X117292380Y-51945023D02*
X116292380Y-51945023D01*
X117292380Y-51373595D01*
X116292380Y-51373595D01*
X117292380Y-50897404D02*
X116292380Y-50897404D01*
X116292380Y-50659309D01*
X116340000Y-50516452D01*
X116435238Y-50421214D01*
X116530476Y-50373595D01*
X116720952Y-50325976D01*
X116863809Y-50325976D01*
X117054285Y-50373595D01*
X117149523Y-50421214D01*
X117244761Y-50516452D01*
X117292380Y-50659309D01*
X117292380Y-50897404D01*
X122275000Y-52087880D02*
X122275000Y-51087880D01*
X123547142Y-51278357D02*
X123594761Y-51325976D01*
X123642380Y-51468833D01*
X123642380Y-51564071D01*
X123594761Y-51706928D01*
X123499523Y-51802166D01*
X123404285Y-51849785D01*
X123213809Y-51897404D01*
X123070952Y-51897404D01*
X122880476Y-51849785D01*
X122785238Y-51802166D01*
X122690000Y-51706928D01*
X122642380Y-51564071D01*
X122642380Y-51468833D01*
X122690000Y-51325976D01*
X122737619Y-51278357D01*
X122275000Y-51087880D02*
X122275000Y-50135500D01*
X123594761Y-50897404D02*
X123642380Y-50754547D01*
X123642380Y-50516452D01*
X123594761Y-50421214D01*
X123547142Y-50373595D01*
X123451904Y-50325976D01*
X123356666Y-50325976D01*
X123261428Y-50373595D01*
X123213809Y-50421214D01*
X123166190Y-50516452D01*
X123118571Y-50706928D01*
X123070952Y-50802166D01*
X123023333Y-50849785D01*
X122928095Y-50897404D01*
X122832857Y-50897404D01*
X122737619Y-50849785D01*
X122690000Y-50802166D01*
X122642380Y-50706928D01*
X122642380Y-50468833D01*
X122690000Y-50325976D01*
X126134761Y-52897404D02*
X126182380Y-52754547D01*
X126182380Y-52516452D01*
X126134761Y-52421214D01*
X126087142Y-52373595D01*
X125991904Y-52325976D01*
X125896666Y-52325976D01*
X125801428Y-52373595D01*
X125753809Y-52421214D01*
X125706190Y-52516452D01*
X125658571Y-52706928D01*
X125610952Y-52802166D01*
X125563333Y-52849785D01*
X125468095Y-52897404D01*
X125372857Y-52897404D01*
X125277619Y-52849785D01*
X125230000Y-52802166D01*
X125182380Y-52706928D01*
X125182380Y-52468833D01*
X125230000Y-52325976D01*
X126087142Y-51325976D02*
X126134761Y-51373595D01*
X126182380Y-51516452D01*
X126182380Y-51611690D01*
X126134761Y-51754547D01*
X126039523Y-51849785D01*
X125944285Y-51897404D01*
X125753809Y-51945023D01*
X125610952Y-51945023D01*
X125420476Y-51897404D01*
X125325238Y-51849785D01*
X125230000Y-51754547D01*
X125182380Y-51611690D01*
X125182380Y-51516452D01*
X125230000Y-51373595D01*
X125277619Y-51325976D01*
X126182380Y-50897404D02*
X125182380Y-50897404D01*
X126182380Y-50325976D02*
X125610952Y-50754547D01*
X125182380Y-50325976D02*
X125753809Y-50897404D01*
X128722380Y-53516452D02*
X127722380Y-53516452D01*
X128436666Y-53183119D01*
X127722380Y-52849785D01*
X128722380Y-52849785D01*
X127722380Y-52183119D02*
X127722380Y-51992642D01*
X127770000Y-51897404D01*
X127865238Y-51802166D01*
X128055714Y-51754547D01*
X128389047Y-51754547D01*
X128579523Y-51802166D01*
X128674761Y-51897404D01*
X128722380Y-51992642D01*
X128722380Y-52183119D01*
X128674761Y-52278357D01*
X128579523Y-52373595D01*
X128389047Y-52421214D01*
X128055714Y-52421214D01*
X127865238Y-52373595D01*
X127770000Y-52278357D01*
X127722380Y-52183119D01*
X128674761Y-51373595D02*
X128722380Y-51230738D01*
X128722380Y-50992642D01*
X128674761Y-50897404D01*
X128627142Y-50849785D01*
X128531904Y-50802166D01*
X128436666Y-50802166D01*
X128341428Y-50849785D01*
X128293809Y-50897404D01*
X128246190Y-50992642D01*
X128198571Y-51183119D01*
X128150952Y-51278357D01*
X128103333Y-51325976D01*
X128008095Y-51373595D01*
X127912857Y-51373595D01*
X127817619Y-51325976D01*
X127770000Y-51278357D01*
X127722380Y-51183119D01*
X127722380Y-50945023D01*
X127770000Y-50802166D01*
X128722380Y-50373595D02*
X127722380Y-50373595D01*
X131262380Y-53516452D02*
X130262380Y-53516452D01*
X130976666Y-53183119D01*
X130262380Y-52849785D01*
X131262380Y-52849785D01*
X131262380Y-52373595D02*
X130262380Y-52373595D01*
X131214761Y-51945023D02*
X131262380Y-51802166D01*
X131262380Y-51564071D01*
X131214761Y-51468833D01*
X131167142Y-51421214D01*
X131071904Y-51373595D01*
X130976666Y-51373595D01*
X130881428Y-51421214D01*
X130833809Y-51468833D01*
X130786190Y-51564071D01*
X130738571Y-51754547D01*
X130690952Y-51849785D01*
X130643333Y-51897404D01*
X130548095Y-51945023D01*
X130452857Y-51945023D01*
X130357619Y-51897404D01*
X130310000Y-51849785D01*
X130262380Y-51754547D01*
X130262380Y-51516452D01*
X130310000Y-51373595D01*
X130262380Y-50754547D02*
X130262380Y-50564071D01*
X130310000Y-50468833D01*
X130405238Y-50373595D01*
X130595714Y-50325976D01*
X130929047Y-50325976D01*
X131119523Y-50373595D01*
X131214761Y-50468833D01*
X131262380Y-50564071D01*
X131262380Y-50754547D01*
X131214761Y-50849785D01*
X131119523Y-50945023D01*
X130929047Y-50992642D01*
X130595714Y-50992642D01*
X130405238Y-50945023D01*
X130310000Y-50849785D01*
X130262380Y-50754547D01*
X140152380Y-51230738D02*
X139152380Y-51230738D01*
X139866666Y-50802166D02*
X139866666Y-50325976D01*
X140152380Y-50897404D02*
X139152380Y-50564071D01*
X140152380Y-50230738D01*
X137612380Y-51373595D02*
X136612380Y-51373595D01*
X137088571Y-50564071D02*
X137136190Y-50421214D01*
X137183809Y-50373595D01*
X137279047Y-50325976D01*
X137421904Y-50325976D01*
X137517142Y-50373595D01*
X137564761Y-50421214D01*
X137612380Y-50516452D01*
X137612380Y-50897404D01*
X136612380Y-50897404D01*
X136612380Y-50564071D01*
X136660000Y-50468833D01*
X136707619Y-50421214D01*
X136802857Y-50373595D01*
X136898095Y-50373595D01*
X136993333Y-50421214D01*
X137040952Y-50468833D01*
X137088571Y-50564071D01*
X137088571Y-50897404D01*
X136205452Y-72556666D02*
X136681642Y-72556666D01*
X136110214Y-72842380D02*
X136443547Y-71842380D01*
X136776880Y-72842380D01*
X137300690Y-71842380D02*
X137395928Y-71842380D01*
X137491166Y-71890000D01*
X137538785Y-71937619D01*
X137586404Y-72032857D01*
X137634023Y-72223333D01*
X137634023Y-72461428D01*
X137586404Y-72651904D01*
X137538785Y-72747142D01*
X137491166Y-72794761D01*
X137395928Y-72842380D01*
X137300690Y-72842380D01*
X137205452Y-72794761D01*
X137157833Y-72747142D01*
X137110214Y-72651904D01*
X137062595Y-72461428D01*
X137062595Y-72223333D01*
X137110214Y-72032857D01*
X137157833Y-71937619D01*
X137205452Y-71890000D01*
X137300690Y-71842380D01*
X136205452Y-70016666D02*
X136681642Y-70016666D01*
X136110214Y-70302380D02*
X136443547Y-69302380D01*
X136776880Y-70302380D01*
X137634023Y-70302380D02*
X137062595Y-70302380D01*
X137348309Y-70302380D02*
X137348309Y-69302380D01*
X137253071Y-69445238D01*
X137157833Y-69540476D01*
X137062595Y-69588095D01*
X136205452Y-67476666D02*
X136681642Y-67476666D01*
X136110214Y-67762380D02*
X136443547Y-66762380D01*
X136776880Y-67762380D01*
X137062595Y-66857619D02*
X137110214Y-66810000D01*
X137205452Y-66762380D01*
X137443547Y-66762380D01*
X137538785Y-66810000D01*
X137586404Y-66857619D01*
X137634023Y-66952857D01*
X137634023Y-67048095D01*
X137586404Y-67190952D01*
X137014976Y-67762380D01*
X137634023Y-67762380D01*
X136205452Y-64936666D02*
X136681642Y-64936666D01*
X136110214Y-65222380D02*
X136443547Y-64222380D01*
X136776880Y-65222380D01*
X137014976Y-64222380D02*
X137634023Y-64222380D01*
X137300690Y-64603333D01*
X137443547Y-64603333D01*
X137538785Y-64650952D01*
X137586404Y-64698571D01*
X137634023Y-64793809D01*
X137634023Y-65031904D01*
X137586404Y-65127142D01*
X137538785Y-65174761D01*
X137443547Y-65222380D01*
X137157833Y-65222380D01*
X137062595Y-65174761D01*
X137014976Y-65127142D01*
X136205452Y-62396666D02*
X136681642Y-62396666D01*
X136110214Y-62682380D02*
X136443547Y-61682380D01*
X136776880Y-62682380D01*
X137538785Y-62015714D02*
X137538785Y-62682380D01*
X137300690Y-61634761D02*
X137062595Y-62349047D01*
X137681642Y-62349047D01*
X136205452Y-59856666D02*
X136681642Y-59856666D01*
X136110214Y-60142380D02*
X136443547Y-59142380D01*
X136776880Y-60142380D01*
X137586404Y-59142380D02*
X137110214Y-59142380D01*
X137062595Y-59618571D01*
X137110214Y-59570952D01*
X137205452Y-59523333D01*
X137443547Y-59523333D01*
X137538785Y-59570952D01*
X137586404Y-59618571D01*
X137634023Y-59713809D01*
X137634023Y-59951904D01*
X137586404Y-60047142D01*
X137538785Y-60094761D01*
X137443547Y-60142380D01*
X137205452Y-60142380D01*
X137110214Y-60094761D01*
X137062595Y-60047142D01*
X136205452Y-57316666D02*
X136681642Y-57316666D01*
X136110214Y-57602380D02*
X136443547Y-56602380D01*
X136776880Y-57602380D01*
X137538785Y-56602380D02*
X137348309Y-56602380D01*
X137253071Y-56650000D01*
X137205452Y-56697619D01*
X137110214Y-56840476D01*
X137062595Y-57030952D01*
X137062595Y-57411904D01*
X137110214Y-57507142D01*
X137157833Y-57554761D01*
X137253071Y-57602380D01*
X137443547Y-57602380D01*
X137538785Y-57554761D01*
X137586404Y-57507142D01*
X137634023Y-57411904D01*
X137634023Y-57173809D01*
X137586404Y-57078571D01*
X137538785Y-57030952D01*
X137443547Y-56983333D01*
X137253071Y-56983333D01*
X137157833Y-57030952D01*
X137110214Y-57078571D01*
X137062595Y-57173809D01*
X136205452Y-54776666D02*
X136681642Y-54776666D01*
X136110214Y-55062380D02*
X136443547Y-54062380D01*
X136776880Y-55062380D01*
X137014976Y-54062380D02*
X137681642Y-54062380D01*
X137253071Y-55062380D01*
X116492928Y-54538571D02*
X116635785Y-54586190D01*
X116683404Y-54633809D01*
X116731023Y-54729047D01*
X116731023Y-54871904D01*
X116683404Y-54967142D01*
X116635785Y-55014761D01*
X116540547Y-55062380D01*
X116159595Y-55062380D01*
X116159595Y-54062380D01*
X116492928Y-54062380D01*
X116588166Y-54110000D01*
X116635785Y-54157619D01*
X116683404Y-54252857D01*
X116683404Y-54348095D01*
X116635785Y-54443333D01*
X116588166Y-54490952D01*
X116492928Y-54538571D01*
X116159595Y-54538571D01*
X117350071Y-54062380D02*
X117445309Y-54062380D01*
X117540547Y-54110000D01*
X117588166Y-54157619D01*
X117635785Y-54252857D01*
X117683404Y-54443333D01*
X117683404Y-54681428D01*
X117635785Y-54871904D01*
X117588166Y-54967142D01*
X117540547Y-55014761D01*
X117445309Y-55062380D01*
X117350071Y-55062380D01*
X117254833Y-55014761D01*
X117207214Y-54967142D01*
X117159595Y-54871904D01*
X117111976Y-54681428D01*
X117111976Y-54443333D01*
X117159595Y-54252857D01*
X117207214Y-54157619D01*
X117254833Y-54110000D01*
X117350071Y-54062380D01*
X116492928Y-57078571D02*
X116635785Y-57126190D01*
X116683404Y-57173809D01*
X116731023Y-57269047D01*
X116731023Y-57411904D01*
X116683404Y-57507142D01*
X116635785Y-57554761D01*
X116540547Y-57602380D01*
X116159595Y-57602380D01*
X116159595Y-56602380D01*
X116492928Y-56602380D01*
X116588166Y-56650000D01*
X116635785Y-56697619D01*
X116683404Y-56792857D01*
X116683404Y-56888095D01*
X116635785Y-56983333D01*
X116588166Y-57030952D01*
X116492928Y-57078571D01*
X116159595Y-57078571D01*
X117683404Y-57602380D02*
X117111976Y-57602380D01*
X117397690Y-57602380D02*
X117397690Y-56602380D01*
X117302452Y-56745238D01*
X117207214Y-56840476D01*
X117111976Y-56888095D01*
X116492928Y-59618571D02*
X116635785Y-59666190D01*
X116683404Y-59713809D01*
X116731023Y-59809047D01*
X116731023Y-59951904D01*
X116683404Y-60047142D01*
X116635785Y-60094761D01*
X116540547Y-60142380D01*
X116159595Y-60142380D01*
X116159595Y-59142380D01*
X116492928Y-59142380D01*
X116588166Y-59190000D01*
X116635785Y-59237619D01*
X116683404Y-59332857D01*
X116683404Y-59428095D01*
X116635785Y-59523333D01*
X116588166Y-59570952D01*
X116492928Y-59618571D01*
X116159595Y-59618571D01*
X117111976Y-59237619D02*
X117159595Y-59190000D01*
X117254833Y-59142380D01*
X117492928Y-59142380D01*
X117588166Y-59190000D01*
X117635785Y-59237619D01*
X117683404Y-59332857D01*
X117683404Y-59428095D01*
X117635785Y-59570952D01*
X117064357Y-60142380D01*
X117683404Y-60142380D01*
X116492928Y-62158571D02*
X116635785Y-62206190D01*
X116683404Y-62253809D01*
X116731023Y-62349047D01*
X116731023Y-62491904D01*
X116683404Y-62587142D01*
X116635785Y-62634761D01*
X116540547Y-62682380D01*
X116159595Y-62682380D01*
X116159595Y-61682380D01*
X116492928Y-61682380D01*
X116588166Y-61730000D01*
X116635785Y-61777619D01*
X116683404Y-61872857D01*
X116683404Y-61968095D01*
X116635785Y-62063333D01*
X116588166Y-62110952D01*
X116492928Y-62158571D01*
X116159595Y-62158571D01*
X117064357Y-61682380D02*
X117683404Y-61682380D01*
X117350071Y-62063333D01*
X117492928Y-62063333D01*
X117588166Y-62110952D01*
X117635785Y-62158571D01*
X117683404Y-62253809D01*
X117683404Y-62491904D01*
X117635785Y-62587142D01*
X117588166Y-62634761D01*
X117492928Y-62682380D01*
X117207214Y-62682380D01*
X117111976Y-62634761D01*
X117064357Y-62587142D01*
X116492928Y-64698571D02*
X116635785Y-64746190D01*
X116683404Y-64793809D01*
X116731023Y-64889047D01*
X116731023Y-65031904D01*
X116683404Y-65127142D01*
X116635785Y-65174761D01*
X116540547Y-65222380D01*
X116159595Y-65222380D01*
X116159595Y-64222380D01*
X116492928Y-64222380D01*
X116588166Y-64270000D01*
X116635785Y-64317619D01*
X116683404Y-64412857D01*
X116683404Y-64508095D01*
X116635785Y-64603333D01*
X116588166Y-64650952D01*
X116492928Y-64698571D01*
X116159595Y-64698571D01*
X117588166Y-64555714D02*
X117588166Y-65222380D01*
X117350071Y-64174761D02*
X117111976Y-64889047D01*
X117731023Y-64889047D01*
X116492928Y-67238571D02*
X116635785Y-67286190D01*
X116683404Y-67333809D01*
X116731023Y-67429047D01*
X116731023Y-67571904D01*
X116683404Y-67667142D01*
X116635785Y-67714761D01*
X116540547Y-67762380D01*
X116159595Y-67762380D01*
X116159595Y-66762380D01*
X116492928Y-66762380D01*
X116588166Y-66810000D01*
X116635785Y-66857619D01*
X116683404Y-66952857D01*
X116683404Y-67048095D01*
X116635785Y-67143333D01*
X116588166Y-67190952D01*
X116492928Y-67238571D01*
X116159595Y-67238571D01*
X117635785Y-66762380D02*
X117159595Y-66762380D01*
X117111976Y-67238571D01*
X117159595Y-67190952D01*
X117254833Y-67143333D01*
X117492928Y-67143333D01*
X117588166Y-67190952D01*
X117635785Y-67238571D01*
X117683404Y-67333809D01*
X117683404Y-67571904D01*
X117635785Y-67667142D01*
X117588166Y-67714761D01*
X117492928Y-67762380D01*
X117254833Y-67762380D01*
X117159595Y-67714761D01*
X117111976Y-67667142D01*
X116492928Y-69778571D02*
X116635785Y-69826190D01*
X116683404Y-69873809D01*
X116731023Y-69969047D01*
X116731023Y-70111904D01*
X116683404Y-70207142D01*
X116635785Y-70254761D01*
X116540547Y-70302380D01*
X116159595Y-70302380D01*
X116159595Y-69302380D01*
X116492928Y-69302380D01*
X116588166Y-69350000D01*
X116635785Y-69397619D01*
X116683404Y-69492857D01*
X116683404Y-69588095D01*
X116635785Y-69683333D01*
X116588166Y-69730952D01*
X116492928Y-69778571D01*
X116159595Y-69778571D01*
X117588166Y-69302380D02*
X117397690Y-69302380D01*
X117302452Y-69350000D01*
X117254833Y-69397619D01*
X117159595Y-69540476D01*
X117111976Y-69730952D01*
X117111976Y-70111904D01*
X117159595Y-70207142D01*
X117207214Y-70254761D01*
X117302452Y-70302380D01*
X117492928Y-70302380D01*
X117588166Y-70254761D01*
X117635785Y-70207142D01*
X117683404Y-70111904D01*
X117683404Y-69873809D01*
X117635785Y-69778571D01*
X117588166Y-69730952D01*
X117492928Y-69683333D01*
X117302452Y-69683333D01*
X117207214Y-69730952D01*
X117159595Y-69778571D01*
X117111976Y-69873809D01*
X116492928Y-72318571D02*
X116635785Y-72366190D01*
X116683404Y-72413809D01*
X116731023Y-72509047D01*
X116731023Y-72651904D01*
X116683404Y-72747142D01*
X116635785Y-72794761D01*
X116540547Y-72842380D01*
X116159595Y-72842380D01*
X116159595Y-71842380D01*
X116492928Y-71842380D01*
X116588166Y-71890000D01*
X116635785Y-71937619D01*
X116683404Y-72032857D01*
X116683404Y-72128095D01*
X116635785Y-72223333D01*
X116588166Y-72270952D01*
X116492928Y-72318571D01*
X116159595Y-72318571D01*
X117064357Y-71842380D02*
X117731023Y-71842380D01*
X117302452Y-72842380D01*
D10*
X127937142Y-87334285D02*
X127937142Y-86941428D01*
X127901428Y-86870000D01*
X127830000Y-86834285D01*
X127687142Y-86834285D01*
X127615714Y-86870000D01*
X127937142Y-87298571D02*
X127865714Y-87334285D01*
X127687142Y-87334285D01*
X127615714Y-87298571D01*
X127580000Y-87227142D01*
X127580000Y-87155714D01*
X127615714Y-87084285D01*
X127687142Y-87048571D01*
X127865714Y-87048571D01*
X127937142Y-87012857D01*
X128615714Y-87334285D02*
X128615714Y-86584285D01*
X128615714Y-87298571D02*
X128544285Y-87334285D01*
X128401428Y-87334285D01*
X128330000Y-87298571D01*
X128294285Y-87262857D01*
X128258571Y-87191428D01*
X128258571Y-86977142D01*
X128294285Y-86905714D01*
X128330000Y-86870000D01*
X128401428Y-86834285D01*
X128544285Y-86834285D01*
X128615714Y-86870000D01*
X128972857Y-87334285D02*
X128972857Y-86834285D01*
X128972857Y-86977142D02*
X129008571Y-86905714D01*
X129044285Y-86870000D01*
X129115714Y-86834285D01*
X129187142Y-86834285D01*
X129722857Y-87298571D02*
X129651428Y-87334285D01*
X129508571Y-87334285D01*
X129437142Y-87298571D01*
X129401428Y-87227142D01*
X129401428Y-86941428D01*
X129437142Y-86870000D01*
X129508571Y-86834285D01*
X129651428Y-86834285D01*
X129722857Y-86870000D01*
X129758571Y-86941428D01*
X129758571Y-87012857D01*
X129401428Y-87084285D01*
X130044285Y-87298571D02*
X130115714Y-87334285D01*
X130258571Y-87334285D01*
X130330000Y-87298571D01*
X130365714Y-87227142D01*
X130365714Y-87191428D01*
X130330000Y-87120000D01*
X130258571Y-87084285D01*
X130151428Y-87084285D01*
X130080000Y-87048571D01*
X130044285Y-86977142D01*
X130044285Y-86941428D01*
X130080000Y-86870000D01*
X130151428Y-86834285D01*
X130258571Y-86834285D01*
X130330000Y-86870000D01*
X130651428Y-87298571D02*
X130722857Y-87334285D01*
X130865714Y-87334285D01*
X130937142Y-87298571D01*
X130972857Y-87227142D01*
X130972857Y-87191428D01*
X130937142Y-87120000D01*
X130865714Y-87084285D01*
X130758571Y-87084285D01*
X130687142Y-87048571D01*
X130651428Y-86977142D01*
X130651428Y-86941428D01*
X130687142Y-86870000D01*
X130758571Y-86834285D01*
X130865714Y-86834285D01*
X130937142Y-86870000D01*
X131294285Y-87262857D02*
X131330000Y-87298571D01*
X131294285Y-87334285D01*
X131258571Y-87298571D01*
X131294285Y-87262857D01*
X131294285Y-87334285D01*
X131294285Y-86870000D02*
X131330000Y-86905714D01*
X131294285Y-86941428D01*
X131258571Y-86905714D01*
X131294285Y-86870000D01*
X131294285Y-86941428D01*
X132365714Y-86584285D02*
X132437142Y-86584285D01*
X132508571Y-86620000D01*
X132544285Y-86655714D01*
X132580000Y-86727142D01*
X132615714Y-86870000D01*
X132615714Y-87048571D01*
X132580000Y-87191428D01*
X132544285Y-87262857D01*
X132508571Y-87298571D01*
X132437142Y-87334285D01*
X132365714Y-87334285D01*
X132294285Y-87298571D01*
X132258571Y-87262857D01*
X132222857Y-87191428D01*
X132187142Y-87048571D01*
X132187142Y-86870000D01*
X132222857Y-86727142D01*
X132258571Y-86655714D01*
X132294285Y-86620000D01*
X132365714Y-86584285D01*
X133330000Y-87334285D02*
X132901428Y-87334285D01*
X133115714Y-87334285D02*
X133115714Y-86584285D01*
X133044285Y-86691428D01*
X132972857Y-86762857D01*
X132901428Y-86798571D01*
X133794285Y-86584285D02*
X133865714Y-86584285D01*
X133937142Y-86620000D01*
X133972857Y-86655714D01*
X134008571Y-86727142D01*
X134044285Y-86870000D01*
X134044285Y-87048571D01*
X134008571Y-87191428D01*
X133972857Y-87262857D01*
X133937142Y-87298571D01*
X133865714Y-87334285D01*
X133794285Y-87334285D01*
X133722857Y-87298571D01*
X133687142Y-87262857D01*
X133651428Y-87191428D01*
X133615714Y-87048571D01*
X133615714Y-86870000D01*
X133651428Y-86727142D01*
X133687142Y-86655714D01*
X133722857Y-86620000D01*
X133794285Y-86584285D01*
X134508571Y-86584285D02*
X134580000Y-86584285D01*
X134651428Y-86620000D01*
X134687142Y-86655714D01*
X134722857Y-86727142D01*
X134758571Y-86870000D01*
X134758571Y-87048571D01*
X134722857Y-87191428D01*
X134687142Y-87262857D01*
X134651428Y-87298571D01*
X134580000Y-87334285D01*
X134508571Y-87334285D01*
X134437142Y-87298571D01*
X134401428Y-87262857D01*
X134365714Y-87191428D01*
X134330000Y-87048571D01*
X134330000Y-86870000D01*
X134365714Y-86727142D01*
X134401428Y-86655714D01*
X134437142Y-86620000D01*
X134508571Y-86584285D01*
X135008571Y-87334285D02*
X135401428Y-86834285D01*
X135008571Y-86834285D02*
X135401428Y-87334285D01*
X135615714Y-87334285D02*
X136008571Y-86834285D01*
X135615714Y-86834285D02*
X136008571Y-87334285D01*
X136222857Y-87334285D02*
X136615714Y-86834285D01*
X136222857Y-86834285D02*
X136615714Y-87334285D01*
D11*
X112579785Y-84505142D02*
X112579785Y-83605142D01*
X112879785Y-84248000D01*
X113179785Y-83605142D01*
X113179785Y-84505142D01*
X114122642Y-84419428D02*
X114079785Y-84462285D01*
X113951214Y-84505142D01*
X113865500Y-84505142D01*
X113736928Y-84462285D01*
X113651214Y-84376571D01*
X113608357Y-84290857D01*
X113565500Y-84119428D01*
X113565500Y-83990857D01*
X113608357Y-83819428D01*
X113651214Y-83733714D01*
X113736928Y-83648000D01*
X113865500Y-83605142D01*
X113951214Y-83605142D01*
X114079785Y-83648000D01*
X114122642Y-83690857D01*
X114508357Y-84505142D02*
X114508357Y-83605142D01*
X114851214Y-83605142D01*
X114936928Y-83648000D01*
X114979785Y-83690857D01*
X115022642Y-83776571D01*
X115022642Y-83905142D01*
X114979785Y-83990857D01*
X114936928Y-84033714D01*
X114851214Y-84076571D01*
X114508357Y-84076571D01*
X115365500Y-83690857D02*
X115408357Y-83648000D01*
X115494071Y-83605142D01*
X115708357Y-83605142D01*
X115794071Y-83648000D01*
X115836928Y-83690857D01*
X115879785Y-83776571D01*
X115879785Y-83862285D01*
X115836928Y-83990857D01*
X115322642Y-84505142D01*
X115879785Y-84505142D01*
X116179785Y-83605142D02*
X116736928Y-83605142D01*
X116436928Y-83948000D01*
X116565500Y-83948000D01*
X116651214Y-83990857D01*
X116694071Y-84033714D01*
X116736928Y-84119428D01*
X116736928Y-84333714D01*
X116694071Y-84419428D01*
X116651214Y-84462285D01*
X116565500Y-84505142D01*
X116308357Y-84505142D01*
X116222642Y-84462285D01*
X116179785Y-84419428D01*
X117079785Y-84462285D02*
X117208357Y-84505142D01*
X117422642Y-84505142D01*
X117508357Y-84462285D01*
X117551214Y-84419428D01*
X117594071Y-84333714D01*
X117594071Y-84248000D01*
X117551214Y-84162285D01*
X117508357Y-84119428D01*
X117422642Y-84076571D01*
X117251214Y-84033714D01*
X117165500Y-83990857D01*
X117122642Y-83948000D01*
X117079785Y-83862285D01*
X117079785Y-83776571D01*
X117122642Y-83690857D01*
X117165500Y-83648000D01*
X117251214Y-83605142D01*
X117465500Y-83605142D01*
X117594071Y-83648000D01*
X118451214Y-84505142D02*
X117936928Y-84505142D01*
X118194071Y-84505142D02*
X118194071Y-83605142D01*
X118108357Y-83733714D01*
X118022642Y-83819428D01*
X117936928Y-83862285D01*
X118751214Y-83605142D02*
X119351214Y-83605142D01*
X118965500Y-84505142D01*
X120636928Y-84848000D02*
X120594071Y-84805142D01*
X120508357Y-84676571D01*
X120465500Y-84590857D01*
X120422642Y-84462285D01*
X120379785Y-84248000D01*
X120379785Y-84076571D01*
X120422642Y-83862285D01*
X120465500Y-83733714D01*
X120508357Y-83648000D01*
X120594071Y-83519428D01*
X120636928Y-83476571D01*
X120894071Y-83605142D02*
X121451214Y-83605142D01*
X121151214Y-83948000D01*
X121279785Y-83948000D01*
X121365500Y-83990857D01*
X121408357Y-84033714D01*
X121451214Y-84119428D01*
X121451214Y-84333714D01*
X121408357Y-84419428D01*
X121365500Y-84462285D01*
X121279785Y-84505142D01*
X121022642Y-84505142D01*
X120936928Y-84462285D01*
X120894071Y-84419428D01*
X121708357Y-83605142D02*
X122008357Y-84505142D01*
X122308357Y-83605142D01*
X122522642Y-83605142D02*
X123079785Y-83605142D01*
X122779785Y-83948000D01*
X122908357Y-83948000D01*
X122994071Y-83990857D01*
X123036928Y-84033714D01*
X123079785Y-84119428D01*
X123079785Y-84333714D01*
X123036928Y-84419428D01*
X122994071Y-84462285D01*
X122908357Y-84505142D01*
X122651214Y-84505142D01*
X122565500Y-84462285D01*
X122522642Y-84419428D01*
X123679785Y-84805142D02*
X123679785Y-83519428D01*
X124751214Y-83605142D02*
X124322642Y-83605142D01*
X124279785Y-84033714D01*
X124322642Y-83990857D01*
X124408357Y-83948000D01*
X124622642Y-83948000D01*
X124708357Y-83990857D01*
X124751214Y-84033714D01*
X124794071Y-84119428D01*
X124794071Y-84333714D01*
X124751214Y-84419428D01*
X124708357Y-84462285D01*
X124622642Y-84505142D01*
X124408357Y-84505142D01*
X124322642Y-84462285D01*
X124279785Y-84419428D01*
X125051214Y-83605142D02*
X125351214Y-84505142D01*
X125651214Y-83605142D01*
X125865500Y-84848000D02*
X125908357Y-84805142D01*
X125994071Y-84676571D01*
X126036928Y-84590857D01*
X126079785Y-84462285D01*
X126122642Y-84248000D01*
X126122642Y-84076571D01*
X126079785Y-83862285D01*
X126036928Y-83733714D01*
X125994071Y-83648000D01*
X125908357Y-83519428D01*
X125865500Y-83476571D01*
X112579785Y-86005142D02*
X112579785Y-85105142D01*
X112922642Y-85105142D01*
X113008357Y-85148000D01*
X113051214Y-85190857D01*
X113094071Y-85276571D01*
X113094071Y-85405142D01*
X113051214Y-85490857D01*
X113008357Y-85533714D01*
X112922642Y-85576571D01*
X112579785Y-85576571D01*
X113608357Y-86005142D02*
X113522642Y-85962285D01*
X113479785Y-85919428D01*
X113436928Y-85833714D01*
X113436928Y-85576571D01*
X113479785Y-85490857D01*
X113522642Y-85448000D01*
X113608357Y-85405142D01*
X113736928Y-85405142D01*
X113822642Y-85448000D01*
X113865500Y-85490857D01*
X113908357Y-85576571D01*
X113908357Y-85833714D01*
X113865500Y-85919428D01*
X113822642Y-85962285D01*
X113736928Y-86005142D01*
X113608357Y-86005142D01*
X114294071Y-86005142D02*
X114294071Y-85405142D01*
X114294071Y-85576571D02*
X114336928Y-85490857D01*
X114379785Y-85448000D01*
X114465500Y-85405142D01*
X114551214Y-85405142D01*
X114722642Y-85405142D02*
X115065500Y-85405142D01*
X114851214Y-85105142D02*
X114851214Y-85876571D01*
X114894071Y-85962285D01*
X114979785Y-86005142D01*
X115065500Y-86005142D01*
X116051214Y-85533714D02*
X116351214Y-85533714D01*
X116479785Y-86005142D02*
X116051214Y-86005142D01*
X116051214Y-85105142D01*
X116479785Y-85105142D01*
X116779785Y-86005142D02*
X117251214Y-85405142D01*
X116779785Y-85405142D02*
X117251214Y-86005142D01*
X117594071Y-85405142D02*
X117594071Y-86305142D01*
X117594071Y-85448000D02*
X117679785Y-85405142D01*
X117851214Y-85405142D01*
X117936928Y-85448000D01*
X117979785Y-85490857D01*
X118022642Y-85576571D01*
X118022642Y-85833714D01*
X117979785Y-85919428D01*
X117936928Y-85962285D01*
X117851214Y-86005142D01*
X117679785Y-86005142D01*
X117594071Y-85962285D01*
X118794071Y-86005142D02*
X118794071Y-85533714D01*
X118751214Y-85448000D01*
X118665500Y-85405142D01*
X118494071Y-85405142D01*
X118408357Y-85448000D01*
X118794071Y-85962285D02*
X118708357Y-86005142D01*
X118494071Y-86005142D01*
X118408357Y-85962285D01*
X118365500Y-85876571D01*
X118365500Y-85790857D01*
X118408357Y-85705142D01*
X118494071Y-85662285D01*
X118708357Y-85662285D01*
X118794071Y-85619428D01*
X119222642Y-85405142D02*
X119222642Y-86005142D01*
X119222642Y-85490857D02*
X119265500Y-85448000D01*
X119351214Y-85405142D01*
X119479785Y-85405142D01*
X119565500Y-85448000D01*
X119608357Y-85533714D01*
X119608357Y-86005142D01*
X120422642Y-86005142D02*
X120422642Y-85105142D01*
X120422642Y-85962285D02*
X120336928Y-86005142D01*
X120165500Y-86005142D01*
X120079785Y-85962285D01*
X120036928Y-85919428D01*
X119994071Y-85833714D01*
X119994071Y-85576571D01*
X120036928Y-85490857D01*
X120079785Y-85448000D01*
X120165500Y-85405142D01*
X120336928Y-85405142D01*
X120422642Y-85448000D01*
X121194071Y-85962285D02*
X121108357Y-86005142D01*
X120936928Y-86005142D01*
X120851214Y-85962285D01*
X120808357Y-85876571D01*
X120808357Y-85533714D01*
X120851214Y-85448000D01*
X120936928Y-85405142D01*
X121108357Y-85405142D01*
X121194071Y-85448000D01*
X121236928Y-85533714D01*
X121236928Y-85619428D01*
X120808357Y-85705142D01*
X121622642Y-86005142D02*
X121622642Y-85405142D01*
X121622642Y-85576571D02*
X121665500Y-85490857D01*
X121708357Y-85448000D01*
X121794071Y-85405142D01*
X121879785Y-85405142D01*
X112451214Y-86605142D02*
X112965500Y-86605142D01*
X112708357Y-87505142D02*
X112708357Y-86605142D01*
X113265500Y-87505142D02*
X113265500Y-86905142D01*
X113265500Y-86605142D02*
X113222642Y-86648000D01*
X113265500Y-86690857D01*
X113308357Y-86648000D01*
X113265500Y-86605142D01*
X113265500Y-86690857D01*
X113694071Y-87505142D02*
X113694071Y-86905142D01*
X113694071Y-86990857D02*
X113736928Y-86948000D01*
X113822642Y-86905142D01*
X113951214Y-86905142D01*
X114036928Y-86948000D01*
X114079785Y-87033714D01*
X114079785Y-87505142D01*
X114079785Y-87033714D02*
X114122642Y-86948000D01*
X114208357Y-86905142D01*
X114336928Y-86905142D01*
X114422642Y-86948000D01*
X114465500Y-87033714D01*
X114465500Y-87505142D01*
X116051214Y-86648000D02*
X115965500Y-86605142D01*
X115836928Y-86605142D01*
X115708357Y-86648000D01*
X115622642Y-86733714D01*
X115579785Y-86819428D01*
X115536928Y-86990857D01*
X115536928Y-87119428D01*
X115579785Y-87290857D01*
X115622642Y-87376571D01*
X115708357Y-87462285D01*
X115836928Y-87505142D01*
X115922642Y-87505142D01*
X116051214Y-87462285D01*
X116094071Y-87419428D01*
X116094071Y-87119428D01*
X115922642Y-87119428D01*
X116608357Y-87505142D02*
X116522642Y-87462285D01*
X116479785Y-87419428D01*
X116436928Y-87333714D01*
X116436928Y-87076571D01*
X116479785Y-86990857D01*
X116522642Y-86948000D01*
X116608357Y-86905142D01*
X116736928Y-86905142D01*
X116822642Y-86948000D01*
X116865500Y-86990857D01*
X116908357Y-87076571D01*
X116908357Y-87333714D01*
X116865500Y-87419428D01*
X116822642Y-87462285D01*
X116736928Y-87505142D01*
X116608357Y-87505142D01*
X117422642Y-87505142D02*
X117336928Y-87462285D01*
X117294071Y-87376571D01*
X117294071Y-86605142D01*
X117894071Y-87505142D02*
X117808357Y-87462285D01*
X117765500Y-87376571D01*
X117765500Y-86605142D01*
X118279785Y-87462285D02*
X118279785Y-87505142D01*
X118236928Y-87590857D01*
X118194071Y-87633714D01*
X119522642Y-86605142D02*
X119608357Y-86605142D01*
X119694071Y-86648000D01*
X119736928Y-86690857D01*
X119779785Y-86776571D01*
X119822642Y-86948000D01*
X119822642Y-87162285D01*
X119779785Y-87333714D01*
X119736928Y-87419428D01*
X119694071Y-87462285D01*
X119608357Y-87505142D01*
X119522642Y-87505142D01*
X119436928Y-87462285D01*
X119394071Y-87419428D01*
X119351214Y-87333714D01*
X119308357Y-87162285D01*
X119308357Y-86948000D01*
X119351214Y-86776571D01*
X119394071Y-86690857D01*
X119436928Y-86648000D01*
X119522642Y-86605142D01*
X120122642Y-86605142D02*
X120679785Y-86605142D01*
X120379785Y-86948000D01*
X120508357Y-86948000D01*
X120594071Y-86990857D01*
X120636928Y-87033714D01*
X120679785Y-87119428D01*
X120679785Y-87333714D01*
X120636928Y-87419428D01*
X120594071Y-87462285D01*
X120508357Y-87505142D01*
X120251214Y-87505142D01*
X120165500Y-87462285D01*
X120122642Y-87419428D01*
X121708357Y-86562285D02*
X120936928Y-87719428D01*
X121965500Y-86690857D02*
X122008357Y-86648000D01*
X122094071Y-86605142D01*
X122308357Y-86605142D01*
X122394071Y-86648000D01*
X122436928Y-86690857D01*
X122479785Y-86776571D01*
X122479785Y-86862285D01*
X122436928Y-86990857D01*
X121922642Y-87505142D01*
X122479785Y-87505142D01*
X123036928Y-86605142D02*
X123122642Y-86605142D01*
X123208357Y-86648000D01*
X123251214Y-86690857D01*
X123294071Y-86776571D01*
X123336928Y-86948000D01*
X123336928Y-87162285D01*
X123294071Y-87333714D01*
X123251214Y-87419428D01*
X123208357Y-87462285D01*
X123122642Y-87505142D01*
X123036928Y-87505142D01*
X122951214Y-87462285D01*
X122908357Y-87419428D01*
X122865500Y-87333714D01*
X122822642Y-87162285D01*
X122822642Y-86948000D01*
X122865500Y-86776571D01*
X122908357Y-86690857D01*
X122951214Y-86648000D01*
X123036928Y-86605142D01*
X123679785Y-86690857D02*
X123722642Y-86648000D01*
X123808357Y-86605142D01*
X124022642Y-86605142D01*
X124108357Y-86648000D01*
X124151214Y-86690857D01*
X124194071Y-86776571D01*
X124194071Y-86862285D01*
X124151214Y-86990857D01*
X123636928Y-87505142D01*
X124194071Y-87505142D01*
X125051214Y-87505142D02*
X124536928Y-87505142D01*
X124794071Y-87505142D02*
X124794071Y-86605142D01*
X124708357Y-86733714D01*
X124622642Y-86819428D01*
X124536928Y-86862285D01*
D10*
%TO.C,C1*%
X118670000Y-66546252D02*
X118670000Y-66023748D01*
X120090000Y-66546252D02*
X120090000Y-66023748D01*
%TO.C,C2*%
X114756000Y-79391252D02*
X114756000Y-78868748D01*
X113336000Y-79391252D02*
X113336000Y-78868748D01*
%TO.C,D1*%
X121973500Y-50398000D02*
X119088500Y-50398000D01*
X121973500Y-52218000D02*
X121973500Y-50398000D01*
X119088500Y-52218000D02*
X121973500Y-52218000D01*
%TO.C,J1*%
X141030000Y-73720000D02*
X139700000Y-73720000D01*
X141030000Y-72390000D02*
X141030000Y-73720000D01*
X141030000Y-71120000D02*
X138370000Y-71120000D01*
X138370000Y-71120000D02*
X138370000Y-53280000D01*
X141030000Y-71120000D02*
X141030000Y-53280000D01*
X141030000Y-53280000D02*
X138370000Y-53280000D01*
%TO.C,J2*%
X112970000Y-73720000D02*
X115630000Y-73720000D01*
X112970000Y-55880000D02*
X112970000Y-73720000D01*
X115630000Y-55880000D02*
X115630000Y-73720000D01*
X112970000Y-55880000D02*
X115630000Y-55880000D01*
X112970000Y-54610000D02*
X112970000Y-53280000D01*
X112970000Y-53280000D02*
X114300000Y-53280000D01*
%TO.C,J3*%
X135830000Y-49590000D02*
X135830000Y-48260000D01*
X137160000Y-49590000D02*
X135830000Y-49590000D01*
X138430000Y-49590000D02*
X138430000Y-46930000D01*
X138430000Y-46930000D02*
X141030000Y-46930000D01*
X138430000Y-49590000D02*
X141030000Y-49590000D01*
X141030000Y-49590000D02*
X141030000Y-46930000D01*
%TO.C,J4*%
X121860000Y-49590000D02*
X121860000Y-48260000D01*
X123190000Y-49590000D02*
X121860000Y-49590000D01*
X124460000Y-49590000D02*
X124460000Y-46930000D01*
X124460000Y-46930000D02*
X132140000Y-46930000D01*
X124460000Y-49590000D02*
X132140000Y-49590000D01*
X132140000Y-49590000D02*
X132140000Y-46930000D01*
%TO.C,R1*%
X120394252Y-52630000D02*
X119871748Y-52630000D01*
X120394252Y-54050000D02*
X119871748Y-54050000D01*
%TO.C,R2*%
X137923748Y-76910000D02*
X138446252Y-76910000D01*
X137923748Y-75490000D02*
X138446252Y-75490000D01*
%TO.C,R3*%
X137923748Y-78030000D02*
X138446252Y-78030000D01*
X137923748Y-79450000D02*
X138446252Y-79450000D01*
%TO.C,R4*%
X127456000Y-78868748D02*
X127456000Y-79391252D01*
X126036000Y-78868748D02*
X126036000Y-79391252D01*
%TO.C,R5*%
X137923748Y-81990000D02*
X138446252Y-81990000D01*
X137923748Y-80570000D02*
X138446252Y-80570000D01*
%TO.C,RST*%
X123626000Y-74875000D02*
X117166000Y-74875000D01*
X123626000Y-79405000D02*
X123626000Y-76805000D01*
X123626000Y-81335000D02*
X117166000Y-81335000D01*
X117166000Y-79405000D02*
X117166000Y-76805000D01*
X123626000Y-81305000D02*
X123626000Y-81335000D01*
X123626000Y-74875000D02*
X123626000Y-74905000D01*
X117166000Y-74875000D02*
X117166000Y-74905000D01*
X117166000Y-81335000D02*
X117166000Y-81305000D01*
%TO.C,SW2*%
X136010000Y-86245000D02*
X136010000Y-73775000D01*
X128150000Y-86245000D02*
X136010000Y-86245000D01*
X128150000Y-73775000D02*
X128150000Y-86245000D01*
X136010000Y-73775000D02*
X128150000Y-73775000D01*
X135950000Y-82545000D02*
X135950000Y-81010000D01*
X128210000Y-82545000D02*
X135950000Y-82545000D01*
X128210000Y-77475000D02*
X128210000Y-82545000D01*
X135950000Y-77475000D02*
X128210000Y-77475000D01*
X135950000Y-79010000D02*
X135950000Y-77475000D01*
X135950000Y-81010000D02*
G75*
G02*
X135950000Y-79010000I0J1000000D01*
G01*
%TO.C,U1*%
X123140000Y-54685000D02*
X121325000Y-54685000D01*
X123140000Y-54440000D02*
X123140000Y-54685000D01*
X127000000Y-54440000D02*
X123140000Y-54440000D01*
X130860000Y-54440000D02*
X130860000Y-54685000D01*
X127000000Y-54440000D02*
X130860000Y-54440000D01*
X123140000Y-72560000D02*
X123140000Y-72315000D01*
X127000000Y-72560000D02*
X123140000Y-72560000D01*
X130860000Y-72560000D02*
X130860000Y-72315000D01*
X127000000Y-72560000D02*
X130860000Y-72560000D01*
%TO.C,J5*%
X112970000Y-49590000D02*
X112970000Y-48260000D01*
X114300000Y-49590000D02*
X112970000Y-49590000D01*
X115570000Y-49590000D02*
X115570000Y-46930000D01*
X115570000Y-46930000D02*
X118170000Y-46930000D01*
X115570000Y-49590000D02*
X118170000Y-49590000D01*
X118170000Y-49590000D02*
X118170000Y-46930000D01*
%TO.C,C1*%
D11*
X119737142Y-63666666D02*
X119784761Y-63714285D01*
X119832380Y-63857142D01*
X119832380Y-63952380D01*
X119784761Y-64095238D01*
X119689523Y-64190476D01*
X119594285Y-64238095D01*
X119403809Y-64285714D01*
X119260952Y-64285714D01*
X119070476Y-64238095D01*
X118975238Y-64190476D01*
X118880000Y-64095238D01*
X118832380Y-63952380D01*
X118832380Y-63857142D01*
X118880000Y-63714285D01*
X118927619Y-63666666D01*
X119832380Y-62714285D02*
X119832380Y-63285714D01*
X119832380Y-63000000D02*
X118832380Y-63000000D01*
X118975238Y-63095238D01*
X119070476Y-63190476D01*
X119118095Y-63285714D01*
%TO.C,C2*%
X114403142Y-76511666D02*
X114450761Y-76559285D01*
X114498380Y-76702142D01*
X114498380Y-76797380D01*
X114450761Y-76940238D01*
X114355523Y-77035476D01*
X114260285Y-77083095D01*
X114069809Y-77130714D01*
X113926952Y-77130714D01*
X113736476Y-77083095D01*
X113641238Y-77035476D01*
X113546000Y-76940238D01*
X113498380Y-76797380D01*
X113498380Y-76702142D01*
X113546000Y-76559285D01*
X113593619Y-76511666D01*
X113593619Y-76130714D02*
X113546000Y-76083095D01*
X113498380Y-75987857D01*
X113498380Y-75749761D01*
X113546000Y-75654523D01*
X113593619Y-75606904D01*
X113688857Y-75559285D01*
X113784095Y-75559285D01*
X113926952Y-75606904D01*
X114498380Y-76178333D01*
X114498380Y-75559285D01*
%TO.C,D1*%
X119403904Y-50236380D02*
X119403904Y-49236380D01*
X119642000Y-49236380D01*
X119784857Y-49284000D01*
X119880095Y-49379238D01*
X119927714Y-49474476D01*
X119975333Y-49664952D01*
X119975333Y-49807809D01*
X119927714Y-49998285D01*
X119880095Y-50093523D01*
X119784857Y-50188761D01*
X119642000Y-50236380D01*
X119403904Y-50236380D01*
X120927714Y-50236380D02*
X120356285Y-50236380D01*
X120642000Y-50236380D02*
X120642000Y-49236380D01*
X120546761Y-49379238D01*
X120451523Y-49474476D01*
X120356285Y-49522095D01*
%TO.C,R1*%
X119975333Y-55570380D02*
X119642000Y-55094190D01*
X119403904Y-55570380D02*
X119403904Y-54570380D01*
X119784857Y-54570380D01*
X119880095Y-54618000D01*
X119927714Y-54665619D01*
X119975333Y-54760857D01*
X119975333Y-54903714D01*
X119927714Y-54998952D01*
X119880095Y-55046571D01*
X119784857Y-55094190D01*
X119403904Y-55094190D01*
X120927714Y-55570380D02*
X120356285Y-55570380D01*
X120642000Y-55570380D02*
X120642000Y-54570380D01*
X120546761Y-54713238D01*
X120451523Y-54808476D01*
X120356285Y-54856095D01*
%TO.C,R2*%
X140803333Y-76652380D02*
X140470000Y-76176190D01*
X140231904Y-76652380D02*
X140231904Y-75652380D01*
X140612857Y-75652380D01*
X140708095Y-75700000D01*
X140755714Y-75747619D01*
X140803333Y-75842857D01*
X140803333Y-75985714D01*
X140755714Y-76080952D01*
X140708095Y-76128571D01*
X140612857Y-76176190D01*
X140231904Y-76176190D01*
X141184285Y-75747619D02*
X141231904Y-75700000D01*
X141327142Y-75652380D01*
X141565238Y-75652380D01*
X141660476Y-75700000D01*
X141708095Y-75747619D01*
X141755714Y-75842857D01*
X141755714Y-75938095D01*
X141708095Y-76080952D01*
X141136666Y-76652380D01*
X141755714Y-76652380D01*
%TO.C,R3*%
X140803333Y-79192380D02*
X140470000Y-78716190D01*
X140231904Y-79192380D02*
X140231904Y-78192380D01*
X140612857Y-78192380D01*
X140708095Y-78240000D01*
X140755714Y-78287619D01*
X140803333Y-78382857D01*
X140803333Y-78525714D01*
X140755714Y-78620952D01*
X140708095Y-78668571D01*
X140612857Y-78716190D01*
X140231904Y-78716190D01*
X141136666Y-78192380D02*
X141755714Y-78192380D01*
X141422380Y-78573333D01*
X141565238Y-78573333D01*
X141660476Y-78620952D01*
X141708095Y-78668571D01*
X141755714Y-78763809D01*
X141755714Y-79001904D01*
X141708095Y-79097142D01*
X141660476Y-79144761D01*
X141565238Y-79192380D01*
X141279523Y-79192380D01*
X141184285Y-79144761D01*
X141136666Y-79097142D01*
%TO.C,R4*%
X127198380Y-76511666D02*
X126722190Y-76845000D01*
X127198380Y-77083095D02*
X126198380Y-77083095D01*
X126198380Y-76702142D01*
X126246000Y-76606904D01*
X126293619Y-76559285D01*
X126388857Y-76511666D01*
X126531714Y-76511666D01*
X126626952Y-76559285D01*
X126674571Y-76606904D01*
X126722190Y-76702142D01*
X126722190Y-77083095D01*
X126531714Y-75654523D02*
X127198380Y-75654523D01*
X126150761Y-75892619D02*
X126865047Y-76130714D01*
X126865047Y-75511666D01*
%TO.C,R5*%
X140803333Y-81732380D02*
X140470000Y-81256190D01*
X140231904Y-81732380D02*
X140231904Y-80732380D01*
X140612857Y-80732380D01*
X140708095Y-80780000D01*
X140755714Y-80827619D01*
X140803333Y-80922857D01*
X140803333Y-81065714D01*
X140755714Y-81160952D01*
X140708095Y-81208571D01*
X140612857Y-81256190D01*
X140231904Y-81256190D01*
X141708095Y-80732380D02*
X141231904Y-80732380D01*
X141184285Y-81208571D01*
X141231904Y-81160952D01*
X141327142Y-81113333D01*
X141565238Y-81113333D01*
X141660476Y-81160952D01*
X141708095Y-81208571D01*
X141755714Y-81303809D01*
X141755714Y-81541904D01*
X141708095Y-81637142D01*
X141660476Y-81684761D01*
X141565238Y-81732380D01*
X141327142Y-81732380D01*
X141231904Y-81684761D01*
X141184285Y-81637142D01*
%TO.C,RST*%
X119848380Y-74620380D02*
X119515047Y-74144190D01*
X119276952Y-74620380D02*
X119276952Y-73620380D01*
X119657904Y-73620380D01*
X119753142Y-73668000D01*
X119800761Y-73715619D01*
X119848380Y-73810857D01*
X119848380Y-73953714D01*
X119800761Y-74048952D01*
X119753142Y-74096571D01*
X119657904Y-74144190D01*
X119276952Y-74144190D01*
X120229333Y-74572761D02*
X120372190Y-74620380D01*
X120610285Y-74620380D01*
X120705523Y-74572761D01*
X120753142Y-74525142D01*
X120800761Y-74429904D01*
X120800761Y-74334666D01*
X120753142Y-74239428D01*
X120705523Y-74191809D01*
X120610285Y-74144190D01*
X120419809Y-74096571D01*
X120324571Y-74048952D01*
X120276952Y-74001333D01*
X120229333Y-73906095D01*
X120229333Y-73810857D01*
X120276952Y-73715619D01*
X120324571Y-73668000D01*
X120419809Y-73620380D01*
X120657904Y-73620380D01*
X120800761Y-73668000D01*
X121086476Y-73620380D02*
X121657904Y-73620380D01*
X121372190Y-74620380D02*
X121372190Y-73620380D01*
%TO.C,U1*%
X126238095Y-73112380D02*
X126238095Y-73921904D01*
X126285714Y-74017142D01*
X126333333Y-74064761D01*
X126428571Y-74112380D01*
X126619047Y-74112380D01*
X126714285Y-74064761D01*
X126761904Y-74017142D01*
X126809523Y-73921904D01*
X126809523Y-73112380D01*
X127809523Y-74112380D02*
X127238095Y-74112380D01*
X127523809Y-74112380D02*
X127523809Y-73112380D01*
X127428571Y-73255238D01*
X127333333Y-73350476D01*
X127238095Y-73398095D01*
%TD*%
M02*
