%TF.GenerationSoftware,KiCad,Pcbnew,(5.1.6)-1*%
%TF.CreationDate,2021-04-07T17:56:13+02:00*%
%TF.ProjectId,port_expander,706f7274-5f65-4787-9061-6e6465722e6b,rev?*%
%TF.SameCoordinates,Original*%
%TF.FileFunction,Copper,L2,Bot*%
%TF.FilePolarity,Positive*%
%FSLAX46Y46*%
G04 Gerber Fmt 4.6, Leading zero omitted, Abs format (unit mm)*
G04 Created by KiCad (PCBNEW (5.1.6)-1) date 2021-04-07 17:56:13*
%MOMM*%
%LPD*%
G01*
G04 APERTURE LIST*
%TA.AperFunction,ComponentPad*%
%ADD10R,1.700000X1.700000*%
%TD*%
%TA.AperFunction,ComponentPad*%
%ADD11O,1.700000X1.700000*%
%TD*%
%TA.AperFunction,ViaPad*%
%ADD12C,0.800000*%
%TD*%
%TA.AperFunction,Conductor*%
%ADD13C,0.635000*%
%TD*%
%TA.AperFunction,Conductor*%
%ADD14C,0.254000*%
%TD*%
G04 APERTURE END LIST*
D10*
%TO.P,J1,1*%
%TO.N,gpa0*%
X139700000Y-72390000D03*
D11*
%TO.P,J1,2*%
%TO.N,gpa1*%
X139700000Y-69850000D03*
%TO.P,J1,3*%
%TO.N,gpa2*%
X139700000Y-67310000D03*
%TO.P,J1,4*%
%TO.N,gpa3*%
X139700000Y-64770000D03*
%TO.P,J1,5*%
%TO.N,gpa4*%
X139700000Y-62230000D03*
%TO.P,J1,6*%
%TO.N,gpa5*%
X139700000Y-59690000D03*
%TO.P,J1,7*%
%TO.N,gpa6*%
X139700000Y-57150000D03*
%TO.P,J1,8*%
%TO.N,gpa7*%
X139700000Y-54610000D03*
%TD*%
%TO.P,J2,8*%
%TO.N,gpb7*%
X114300000Y-72390000D03*
%TO.P,J2,7*%
%TO.N,gpb6*%
X114300000Y-69850000D03*
%TO.P,J2,6*%
%TO.N,gpb5*%
X114300000Y-67310000D03*
%TO.P,J2,5*%
%TO.N,gpb4*%
X114300000Y-64770000D03*
%TO.P,J2,4*%
%TO.N,gpb3*%
X114300000Y-62230000D03*
%TO.P,J2,3*%
%TO.N,gpb2*%
X114300000Y-59690000D03*
%TO.P,J2,2*%
%TO.N,gpb1*%
X114300000Y-57150000D03*
D10*
%TO.P,J2,1*%
%TO.N,gpb0*%
X114300000Y-54610000D03*
%TD*%
%TO.P,J3,1*%
%TO.N,intb*%
X137160000Y-48260000D03*
D11*
%TO.P,J3,2*%
%TO.N,inta*%
X139700000Y-48260000D03*
%TD*%
D10*
%TO.P,J4,1*%
%TO.N,~cs*%
X123190000Y-48260000D03*
D11*
%TO.P,J4,2*%
%TO.N,sck*%
X125730000Y-48260000D03*
%TO.P,J4,3*%
%TO.N,mosi*%
X128270000Y-48260000D03*
%TO.P,J4,4*%
%TO.N,miso*%
X130810000Y-48260000D03*
%TD*%
D10*
%TO.P,J5,1*%
%TO.N,+5V*%
X114300000Y-48260000D03*
D11*
%TO.P,J5,2*%
%TO.N,GND*%
X116840000Y-48260000D03*
%TD*%
D12*
%TO.N,+5V*%
X120650000Y-65786000D03*
X125095000Y-78105000D03*
X132080000Y-82169000D03*
X117602000Y-51308000D03*
%TD*%
D13*
%TO.N,+5V*%
X120650000Y-65786000D02*
X120650000Y-66421000D01*
X125095000Y-78105000D02*
X124206000Y-78105000D01*
X132080000Y-82169000D02*
X132080000Y-81280000D01*
X117602000Y-51308000D02*
X117094000Y-51308000D01*
X117094000Y-51308000D02*
X116586000Y-50800000D01*
%TD*%
D14*
%TO.N,+5V*%
G36*
X141497197Y-46385047D02*
G01*
X141515662Y-46390622D01*
X141532694Y-46399678D01*
X141547643Y-46411870D01*
X141559938Y-46426732D01*
X141569111Y-46443696D01*
X141574817Y-46462129D01*
X141580000Y-46511446D01*
X141580001Y-87343712D01*
X141574953Y-87395195D01*
X141569377Y-87413663D01*
X141560322Y-87430693D01*
X141548129Y-87445643D01*
X141533266Y-87457939D01*
X141516303Y-87467111D01*
X141497871Y-87472817D01*
X141448554Y-87478000D01*
X112554277Y-87478000D01*
X112502805Y-87472953D01*
X112484337Y-87467377D01*
X112467307Y-87458322D01*
X112452357Y-87446129D01*
X112440061Y-87431266D01*
X112430889Y-87414303D01*
X112425183Y-87395871D01*
X112420000Y-87346554D01*
X112420000Y-53760000D01*
X112811928Y-53760000D01*
X112811928Y-55460000D01*
X112824188Y-55584482D01*
X112860498Y-55704180D01*
X112919463Y-55814494D01*
X112998815Y-55911185D01*
X113095506Y-55990537D01*
X113205820Y-56049502D01*
X113278380Y-56071513D01*
X113146525Y-56203368D01*
X112984010Y-56446589D01*
X112872068Y-56716842D01*
X112815000Y-57003740D01*
X112815000Y-57296260D01*
X112872068Y-57583158D01*
X112984010Y-57853411D01*
X113146525Y-58096632D01*
X113353368Y-58303475D01*
X113527760Y-58420000D01*
X113353368Y-58536525D01*
X113146525Y-58743368D01*
X112984010Y-58986589D01*
X112872068Y-59256842D01*
X112815000Y-59543740D01*
X112815000Y-59836260D01*
X112872068Y-60123158D01*
X112984010Y-60393411D01*
X113146525Y-60636632D01*
X113353368Y-60843475D01*
X113527760Y-60960000D01*
X113353368Y-61076525D01*
X113146525Y-61283368D01*
X112984010Y-61526589D01*
X112872068Y-61796842D01*
X112815000Y-62083740D01*
X112815000Y-62376260D01*
X112872068Y-62663158D01*
X112984010Y-62933411D01*
X113146525Y-63176632D01*
X113353368Y-63383475D01*
X113527760Y-63500000D01*
X113353368Y-63616525D01*
X113146525Y-63823368D01*
X112984010Y-64066589D01*
X112872068Y-64336842D01*
X112815000Y-64623740D01*
X112815000Y-64916260D01*
X112872068Y-65203158D01*
X112984010Y-65473411D01*
X113146525Y-65716632D01*
X113353368Y-65923475D01*
X113527760Y-66040000D01*
X113353368Y-66156525D01*
X113146525Y-66363368D01*
X112984010Y-66606589D01*
X112872068Y-66876842D01*
X112815000Y-67163740D01*
X112815000Y-67456260D01*
X112872068Y-67743158D01*
X112984010Y-68013411D01*
X113146525Y-68256632D01*
X113353368Y-68463475D01*
X113527760Y-68580000D01*
X113353368Y-68696525D01*
X113146525Y-68903368D01*
X112984010Y-69146589D01*
X112872068Y-69416842D01*
X112815000Y-69703740D01*
X112815000Y-69996260D01*
X112872068Y-70283158D01*
X112984010Y-70553411D01*
X113146525Y-70796632D01*
X113353368Y-71003475D01*
X113527760Y-71120000D01*
X113353368Y-71236525D01*
X113146525Y-71443368D01*
X112984010Y-71686589D01*
X112872068Y-71956842D01*
X112815000Y-72243740D01*
X112815000Y-72536260D01*
X112872068Y-72823158D01*
X112984010Y-73093411D01*
X113146525Y-73336632D01*
X113353368Y-73543475D01*
X113596589Y-73705990D01*
X113866842Y-73817932D01*
X114153740Y-73875000D01*
X114446260Y-73875000D01*
X114733158Y-73817932D01*
X115003411Y-73705990D01*
X115246632Y-73543475D01*
X115453475Y-73336632D01*
X115615990Y-73093411D01*
X115727932Y-72823158D01*
X115785000Y-72536260D01*
X115785000Y-72243740D01*
X115727932Y-71956842D01*
X115615990Y-71686589D01*
X115518043Y-71540000D01*
X138211928Y-71540000D01*
X138211928Y-73240000D01*
X138224188Y-73364482D01*
X138260498Y-73484180D01*
X138319463Y-73594494D01*
X138398815Y-73691185D01*
X138495506Y-73770537D01*
X138605820Y-73829502D01*
X138725518Y-73865812D01*
X138850000Y-73878072D01*
X140550000Y-73878072D01*
X140674482Y-73865812D01*
X140794180Y-73829502D01*
X140904494Y-73770537D01*
X141001185Y-73691185D01*
X141080537Y-73594494D01*
X141139502Y-73484180D01*
X141175812Y-73364482D01*
X141188072Y-73240000D01*
X141188072Y-71540000D01*
X141175812Y-71415518D01*
X141139502Y-71295820D01*
X141080537Y-71185506D01*
X141001185Y-71088815D01*
X140904494Y-71009463D01*
X140794180Y-70950498D01*
X140721620Y-70928487D01*
X140853475Y-70796632D01*
X141015990Y-70553411D01*
X141127932Y-70283158D01*
X141185000Y-69996260D01*
X141185000Y-69703740D01*
X141127932Y-69416842D01*
X141015990Y-69146589D01*
X140853475Y-68903368D01*
X140646632Y-68696525D01*
X140472240Y-68580000D01*
X140646632Y-68463475D01*
X140853475Y-68256632D01*
X141015990Y-68013411D01*
X141127932Y-67743158D01*
X141185000Y-67456260D01*
X141185000Y-67163740D01*
X141127932Y-66876842D01*
X141015990Y-66606589D01*
X140853475Y-66363368D01*
X140646632Y-66156525D01*
X140472240Y-66040000D01*
X140646632Y-65923475D01*
X140853475Y-65716632D01*
X141015990Y-65473411D01*
X141127932Y-65203158D01*
X141185000Y-64916260D01*
X141185000Y-64623740D01*
X141127932Y-64336842D01*
X141015990Y-64066589D01*
X140853475Y-63823368D01*
X140646632Y-63616525D01*
X140472240Y-63500000D01*
X140646632Y-63383475D01*
X140853475Y-63176632D01*
X141015990Y-62933411D01*
X141127932Y-62663158D01*
X141185000Y-62376260D01*
X141185000Y-62083740D01*
X141127932Y-61796842D01*
X141015990Y-61526589D01*
X140853475Y-61283368D01*
X140646632Y-61076525D01*
X140472240Y-60960000D01*
X140646632Y-60843475D01*
X140853475Y-60636632D01*
X141015990Y-60393411D01*
X141127932Y-60123158D01*
X141185000Y-59836260D01*
X141185000Y-59543740D01*
X141127932Y-59256842D01*
X141015990Y-58986589D01*
X140853475Y-58743368D01*
X140646632Y-58536525D01*
X140472240Y-58420000D01*
X140646632Y-58303475D01*
X140853475Y-58096632D01*
X141015990Y-57853411D01*
X141127932Y-57583158D01*
X141185000Y-57296260D01*
X141185000Y-57003740D01*
X141127932Y-56716842D01*
X141015990Y-56446589D01*
X140853475Y-56203368D01*
X140646632Y-55996525D01*
X140472240Y-55880000D01*
X140646632Y-55763475D01*
X140853475Y-55556632D01*
X141015990Y-55313411D01*
X141127932Y-55043158D01*
X141185000Y-54756260D01*
X141185000Y-54463740D01*
X141127932Y-54176842D01*
X141015990Y-53906589D01*
X140853475Y-53663368D01*
X140646632Y-53456525D01*
X140403411Y-53294010D01*
X140133158Y-53182068D01*
X139846260Y-53125000D01*
X139553740Y-53125000D01*
X139266842Y-53182068D01*
X138996589Y-53294010D01*
X138753368Y-53456525D01*
X138546525Y-53663368D01*
X138384010Y-53906589D01*
X138272068Y-54176842D01*
X138215000Y-54463740D01*
X138215000Y-54756260D01*
X138272068Y-55043158D01*
X138384010Y-55313411D01*
X138546525Y-55556632D01*
X138753368Y-55763475D01*
X138927760Y-55880000D01*
X138753368Y-55996525D01*
X138546525Y-56203368D01*
X138384010Y-56446589D01*
X138272068Y-56716842D01*
X138215000Y-57003740D01*
X138215000Y-57296260D01*
X138272068Y-57583158D01*
X138384010Y-57853411D01*
X138546525Y-58096632D01*
X138753368Y-58303475D01*
X138927760Y-58420000D01*
X138753368Y-58536525D01*
X138546525Y-58743368D01*
X138384010Y-58986589D01*
X138272068Y-59256842D01*
X138215000Y-59543740D01*
X138215000Y-59836260D01*
X138272068Y-60123158D01*
X138384010Y-60393411D01*
X138546525Y-60636632D01*
X138753368Y-60843475D01*
X138927760Y-60960000D01*
X138753368Y-61076525D01*
X138546525Y-61283368D01*
X138384010Y-61526589D01*
X138272068Y-61796842D01*
X138215000Y-62083740D01*
X138215000Y-62376260D01*
X138272068Y-62663158D01*
X138384010Y-62933411D01*
X138546525Y-63176632D01*
X138753368Y-63383475D01*
X138927760Y-63500000D01*
X138753368Y-63616525D01*
X138546525Y-63823368D01*
X138384010Y-64066589D01*
X138272068Y-64336842D01*
X138215000Y-64623740D01*
X138215000Y-64916260D01*
X138272068Y-65203158D01*
X138384010Y-65473411D01*
X138546525Y-65716632D01*
X138753368Y-65923475D01*
X138927760Y-66040000D01*
X138753368Y-66156525D01*
X138546525Y-66363368D01*
X138384010Y-66606589D01*
X138272068Y-66876842D01*
X138215000Y-67163740D01*
X138215000Y-67456260D01*
X138272068Y-67743158D01*
X138384010Y-68013411D01*
X138546525Y-68256632D01*
X138753368Y-68463475D01*
X138927760Y-68580000D01*
X138753368Y-68696525D01*
X138546525Y-68903368D01*
X138384010Y-69146589D01*
X138272068Y-69416842D01*
X138215000Y-69703740D01*
X138215000Y-69996260D01*
X138272068Y-70283158D01*
X138384010Y-70553411D01*
X138546525Y-70796632D01*
X138678380Y-70928487D01*
X138605820Y-70950498D01*
X138495506Y-71009463D01*
X138398815Y-71088815D01*
X138319463Y-71185506D01*
X138260498Y-71295820D01*
X138224188Y-71415518D01*
X138211928Y-71540000D01*
X115518043Y-71540000D01*
X115453475Y-71443368D01*
X115246632Y-71236525D01*
X115072240Y-71120000D01*
X115246632Y-71003475D01*
X115453475Y-70796632D01*
X115615990Y-70553411D01*
X115727932Y-70283158D01*
X115785000Y-69996260D01*
X115785000Y-69703740D01*
X115727932Y-69416842D01*
X115615990Y-69146589D01*
X115453475Y-68903368D01*
X115246632Y-68696525D01*
X115072240Y-68580000D01*
X115246632Y-68463475D01*
X115453475Y-68256632D01*
X115615990Y-68013411D01*
X115727932Y-67743158D01*
X115785000Y-67456260D01*
X115785000Y-67163740D01*
X115727932Y-66876842D01*
X115615990Y-66606589D01*
X115453475Y-66363368D01*
X115246632Y-66156525D01*
X115072240Y-66040000D01*
X115246632Y-65923475D01*
X115453475Y-65716632D01*
X115615990Y-65473411D01*
X115727932Y-65203158D01*
X115785000Y-64916260D01*
X115785000Y-64623740D01*
X115727932Y-64336842D01*
X115615990Y-64066589D01*
X115453475Y-63823368D01*
X115246632Y-63616525D01*
X115072240Y-63500000D01*
X115246632Y-63383475D01*
X115453475Y-63176632D01*
X115615990Y-62933411D01*
X115727932Y-62663158D01*
X115785000Y-62376260D01*
X115785000Y-62083740D01*
X115727932Y-61796842D01*
X115615990Y-61526589D01*
X115453475Y-61283368D01*
X115246632Y-61076525D01*
X115072240Y-60960000D01*
X115246632Y-60843475D01*
X115453475Y-60636632D01*
X115615990Y-60393411D01*
X115727932Y-60123158D01*
X115785000Y-59836260D01*
X115785000Y-59543740D01*
X115727932Y-59256842D01*
X115615990Y-58986589D01*
X115453475Y-58743368D01*
X115246632Y-58536525D01*
X115072240Y-58420000D01*
X115246632Y-58303475D01*
X115453475Y-58096632D01*
X115615990Y-57853411D01*
X115727932Y-57583158D01*
X115785000Y-57296260D01*
X115785000Y-57003740D01*
X115727932Y-56716842D01*
X115615990Y-56446589D01*
X115453475Y-56203368D01*
X115321620Y-56071513D01*
X115394180Y-56049502D01*
X115504494Y-55990537D01*
X115601185Y-55911185D01*
X115680537Y-55814494D01*
X115739502Y-55704180D01*
X115775812Y-55584482D01*
X115788072Y-55460000D01*
X115788072Y-53760000D01*
X115775812Y-53635518D01*
X115739502Y-53515820D01*
X115680537Y-53405506D01*
X115601185Y-53308815D01*
X115504494Y-53229463D01*
X115394180Y-53170498D01*
X115274482Y-53134188D01*
X115150000Y-53121928D01*
X113450000Y-53121928D01*
X113325518Y-53134188D01*
X113205820Y-53170498D01*
X113095506Y-53229463D01*
X112998815Y-53308815D01*
X112919463Y-53405506D01*
X112860498Y-53515820D01*
X112824188Y-53635518D01*
X112811928Y-53760000D01*
X112420000Y-53760000D01*
X112420000Y-49110000D01*
X112811928Y-49110000D01*
X112824188Y-49234482D01*
X112860498Y-49354180D01*
X112919463Y-49464494D01*
X112998815Y-49561185D01*
X113095506Y-49640537D01*
X113205820Y-49699502D01*
X113325518Y-49735812D01*
X113450000Y-49748072D01*
X114014250Y-49745000D01*
X114173000Y-49586250D01*
X114173000Y-48387000D01*
X112973750Y-48387000D01*
X112815000Y-48545750D01*
X112811928Y-49110000D01*
X112420000Y-49110000D01*
X112420000Y-47410000D01*
X112811928Y-47410000D01*
X112815000Y-47974250D01*
X112973750Y-48133000D01*
X114173000Y-48133000D01*
X114173000Y-46933750D01*
X114427000Y-46933750D01*
X114427000Y-48133000D01*
X114447000Y-48133000D01*
X114447000Y-48387000D01*
X114427000Y-48387000D01*
X114427000Y-49586250D01*
X114585750Y-49745000D01*
X115150000Y-49748072D01*
X115274482Y-49735812D01*
X115394180Y-49699502D01*
X115504494Y-49640537D01*
X115601185Y-49561185D01*
X115680537Y-49464494D01*
X115739502Y-49354180D01*
X115761513Y-49281620D01*
X115893368Y-49413475D01*
X116136589Y-49575990D01*
X116406842Y-49687932D01*
X116693740Y-49745000D01*
X116986260Y-49745000D01*
X117273158Y-49687932D01*
X117543411Y-49575990D01*
X117786632Y-49413475D01*
X117993475Y-49206632D01*
X118155990Y-48963411D01*
X118267932Y-48693158D01*
X118325000Y-48406260D01*
X118325000Y-48113740D01*
X118267932Y-47826842D01*
X118155990Y-47556589D01*
X118058043Y-47410000D01*
X121701928Y-47410000D01*
X121701928Y-49110000D01*
X121714188Y-49234482D01*
X121750498Y-49354180D01*
X121809463Y-49464494D01*
X121888815Y-49561185D01*
X121985506Y-49640537D01*
X122095820Y-49699502D01*
X122215518Y-49735812D01*
X122340000Y-49748072D01*
X124040000Y-49748072D01*
X124164482Y-49735812D01*
X124284180Y-49699502D01*
X124394494Y-49640537D01*
X124491185Y-49561185D01*
X124570537Y-49464494D01*
X124629502Y-49354180D01*
X124651513Y-49281620D01*
X124783368Y-49413475D01*
X125026589Y-49575990D01*
X125296842Y-49687932D01*
X125583740Y-49745000D01*
X125876260Y-49745000D01*
X126163158Y-49687932D01*
X126433411Y-49575990D01*
X126676632Y-49413475D01*
X126883475Y-49206632D01*
X127000000Y-49032240D01*
X127116525Y-49206632D01*
X127323368Y-49413475D01*
X127566589Y-49575990D01*
X127836842Y-49687932D01*
X128123740Y-49745000D01*
X128416260Y-49745000D01*
X128703158Y-49687932D01*
X128973411Y-49575990D01*
X129216632Y-49413475D01*
X129423475Y-49206632D01*
X129540000Y-49032240D01*
X129656525Y-49206632D01*
X129863368Y-49413475D01*
X130106589Y-49575990D01*
X130376842Y-49687932D01*
X130663740Y-49745000D01*
X130956260Y-49745000D01*
X131243158Y-49687932D01*
X131513411Y-49575990D01*
X131756632Y-49413475D01*
X131963475Y-49206632D01*
X132125990Y-48963411D01*
X132237932Y-48693158D01*
X132295000Y-48406260D01*
X132295000Y-48113740D01*
X132237932Y-47826842D01*
X132125990Y-47556589D01*
X132028043Y-47410000D01*
X135671928Y-47410000D01*
X135671928Y-49110000D01*
X135684188Y-49234482D01*
X135720498Y-49354180D01*
X135779463Y-49464494D01*
X135858815Y-49561185D01*
X135955506Y-49640537D01*
X136065820Y-49699502D01*
X136185518Y-49735812D01*
X136310000Y-49748072D01*
X138010000Y-49748072D01*
X138134482Y-49735812D01*
X138254180Y-49699502D01*
X138364494Y-49640537D01*
X138461185Y-49561185D01*
X138540537Y-49464494D01*
X138599502Y-49354180D01*
X138621513Y-49281620D01*
X138753368Y-49413475D01*
X138996589Y-49575990D01*
X139266842Y-49687932D01*
X139553740Y-49745000D01*
X139846260Y-49745000D01*
X140133158Y-49687932D01*
X140403411Y-49575990D01*
X140646632Y-49413475D01*
X140853475Y-49206632D01*
X141015990Y-48963411D01*
X141127932Y-48693158D01*
X141185000Y-48406260D01*
X141185000Y-48113740D01*
X141127932Y-47826842D01*
X141015990Y-47556589D01*
X140853475Y-47313368D01*
X140646632Y-47106525D01*
X140403411Y-46944010D01*
X140133158Y-46832068D01*
X139846260Y-46775000D01*
X139553740Y-46775000D01*
X139266842Y-46832068D01*
X138996589Y-46944010D01*
X138753368Y-47106525D01*
X138621513Y-47238380D01*
X138599502Y-47165820D01*
X138540537Y-47055506D01*
X138461185Y-46958815D01*
X138364494Y-46879463D01*
X138254180Y-46820498D01*
X138134482Y-46784188D01*
X138010000Y-46771928D01*
X136310000Y-46771928D01*
X136185518Y-46784188D01*
X136065820Y-46820498D01*
X135955506Y-46879463D01*
X135858815Y-46958815D01*
X135779463Y-47055506D01*
X135720498Y-47165820D01*
X135684188Y-47285518D01*
X135671928Y-47410000D01*
X132028043Y-47410000D01*
X131963475Y-47313368D01*
X131756632Y-47106525D01*
X131513411Y-46944010D01*
X131243158Y-46832068D01*
X130956260Y-46775000D01*
X130663740Y-46775000D01*
X130376842Y-46832068D01*
X130106589Y-46944010D01*
X129863368Y-47106525D01*
X129656525Y-47313368D01*
X129540000Y-47487760D01*
X129423475Y-47313368D01*
X129216632Y-47106525D01*
X128973411Y-46944010D01*
X128703158Y-46832068D01*
X128416260Y-46775000D01*
X128123740Y-46775000D01*
X127836842Y-46832068D01*
X127566589Y-46944010D01*
X127323368Y-47106525D01*
X127116525Y-47313368D01*
X127000000Y-47487760D01*
X126883475Y-47313368D01*
X126676632Y-47106525D01*
X126433411Y-46944010D01*
X126163158Y-46832068D01*
X125876260Y-46775000D01*
X125583740Y-46775000D01*
X125296842Y-46832068D01*
X125026589Y-46944010D01*
X124783368Y-47106525D01*
X124651513Y-47238380D01*
X124629502Y-47165820D01*
X124570537Y-47055506D01*
X124491185Y-46958815D01*
X124394494Y-46879463D01*
X124284180Y-46820498D01*
X124164482Y-46784188D01*
X124040000Y-46771928D01*
X122340000Y-46771928D01*
X122215518Y-46784188D01*
X122095820Y-46820498D01*
X121985506Y-46879463D01*
X121888815Y-46958815D01*
X121809463Y-47055506D01*
X121750498Y-47165820D01*
X121714188Y-47285518D01*
X121701928Y-47410000D01*
X118058043Y-47410000D01*
X117993475Y-47313368D01*
X117786632Y-47106525D01*
X117543411Y-46944010D01*
X117273158Y-46832068D01*
X116986260Y-46775000D01*
X116693740Y-46775000D01*
X116406842Y-46832068D01*
X116136589Y-46944010D01*
X115893368Y-47106525D01*
X115761513Y-47238380D01*
X115739502Y-47165820D01*
X115680537Y-47055506D01*
X115601185Y-46958815D01*
X115504494Y-46879463D01*
X115394180Y-46820498D01*
X115274482Y-46784188D01*
X115150000Y-46771928D01*
X114585750Y-46775000D01*
X114427000Y-46933750D01*
X114173000Y-46933750D01*
X114014250Y-46775000D01*
X113450000Y-46771928D01*
X113325518Y-46784188D01*
X113205820Y-46820498D01*
X113095506Y-46879463D01*
X112998815Y-46958815D01*
X112919463Y-47055506D01*
X112860498Y-47165820D01*
X112824188Y-47285518D01*
X112811928Y-47410000D01*
X112420000Y-47410000D01*
X112420000Y-46514277D01*
X112425047Y-46462803D01*
X112430622Y-46444338D01*
X112439678Y-46427306D01*
X112451870Y-46412357D01*
X112466732Y-46400062D01*
X112483696Y-46390889D01*
X112502129Y-46385183D01*
X112551446Y-46380000D01*
X141445723Y-46380000D01*
X141497197Y-46385047D01*
G37*
X141497197Y-46385047D02*
X141515662Y-46390622D01*
X141532694Y-46399678D01*
X141547643Y-46411870D01*
X141559938Y-46426732D01*
X141569111Y-46443696D01*
X141574817Y-46462129D01*
X141580000Y-46511446D01*
X141580001Y-87343712D01*
X141574953Y-87395195D01*
X141569377Y-87413663D01*
X141560322Y-87430693D01*
X141548129Y-87445643D01*
X141533266Y-87457939D01*
X141516303Y-87467111D01*
X141497871Y-87472817D01*
X141448554Y-87478000D01*
X112554277Y-87478000D01*
X112502805Y-87472953D01*
X112484337Y-87467377D01*
X112467307Y-87458322D01*
X112452357Y-87446129D01*
X112440061Y-87431266D01*
X112430889Y-87414303D01*
X112425183Y-87395871D01*
X112420000Y-87346554D01*
X112420000Y-53760000D01*
X112811928Y-53760000D01*
X112811928Y-55460000D01*
X112824188Y-55584482D01*
X112860498Y-55704180D01*
X112919463Y-55814494D01*
X112998815Y-55911185D01*
X113095506Y-55990537D01*
X113205820Y-56049502D01*
X113278380Y-56071513D01*
X113146525Y-56203368D01*
X112984010Y-56446589D01*
X112872068Y-56716842D01*
X112815000Y-57003740D01*
X112815000Y-57296260D01*
X112872068Y-57583158D01*
X112984010Y-57853411D01*
X113146525Y-58096632D01*
X113353368Y-58303475D01*
X113527760Y-58420000D01*
X113353368Y-58536525D01*
X113146525Y-58743368D01*
X112984010Y-58986589D01*
X112872068Y-59256842D01*
X112815000Y-59543740D01*
X112815000Y-59836260D01*
X112872068Y-60123158D01*
X112984010Y-60393411D01*
X113146525Y-60636632D01*
X113353368Y-60843475D01*
X113527760Y-60960000D01*
X113353368Y-61076525D01*
X113146525Y-61283368D01*
X112984010Y-61526589D01*
X112872068Y-61796842D01*
X112815000Y-62083740D01*
X112815000Y-62376260D01*
X112872068Y-62663158D01*
X112984010Y-62933411D01*
X113146525Y-63176632D01*
X113353368Y-63383475D01*
X113527760Y-63500000D01*
X113353368Y-63616525D01*
X113146525Y-63823368D01*
X112984010Y-64066589D01*
X112872068Y-64336842D01*
X112815000Y-64623740D01*
X112815000Y-64916260D01*
X112872068Y-65203158D01*
X112984010Y-65473411D01*
X113146525Y-65716632D01*
X113353368Y-65923475D01*
X113527760Y-66040000D01*
X113353368Y-66156525D01*
X113146525Y-66363368D01*
X112984010Y-66606589D01*
X112872068Y-66876842D01*
X112815000Y-67163740D01*
X112815000Y-67456260D01*
X112872068Y-67743158D01*
X112984010Y-68013411D01*
X113146525Y-68256632D01*
X113353368Y-68463475D01*
X113527760Y-68580000D01*
X113353368Y-68696525D01*
X113146525Y-68903368D01*
X112984010Y-69146589D01*
X112872068Y-69416842D01*
X112815000Y-69703740D01*
X112815000Y-69996260D01*
X112872068Y-70283158D01*
X112984010Y-70553411D01*
X113146525Y-70796632D01*
X113353368Y-71003475D01*
X113527760Y-71120000D01*
X113353368Y-71236525D01*
X113146525Y-71443368D01*
X112984010Y-71686589D01*
X112872068Y-71956842D01*
X112815000Y-72243740D01*
X112815000Y-72536260D01*
X112872068Y-72823158D01*
X112984010Y-73093411D01*
X113146525Y-73336632D01*
X113353368Y-73543475D01*
X113596589Y-73705990D01*
X113866842Y-73817932D01*
X114153740Y-73875000D01*
X114446260Y-73875000D01*
X114733158Y-73817932D01*
X115003411Y-73705990D01*
X115246632Y-73543475D01*
X115453475Y-73336632D01*
X115615990Y-73093411D01*
X115727932Y-72823158D01*
X115785000Y-72536260D01*
X115785000Y-72243740D01*
X115727932Y-71956842D01*
X115615990Y-71686589D01*
X115518043Y-71540000D01*
X138211928Y-71540000D01*
X138211928Y-73240000D01*
X138224188Y-73364482D01*
X138260498Y-73484180D01*
X138319463Y-73594494D01*
X138398815Y-73691185D01*
X138495506Y-73770537D01*
X138605820Y-73829502D01*
X138725518Y-73865812D01*
X138850000Y-73878072D01*
X140550000Y-73878072D01*
X140674482Y-73865812D01*
X140794180Y-73829502D01*
X140904494Y-73770537D01*
X141001185Y-73691185D01*
X141080537Y-73594494D01*
X141139502Y-73484180D01*
X141175812Y-73364482D01*
X141188072Y-73240000D01*
X141188072Y-71540000D01*
X141175812Y-71415518D01*
X141139502Y-71295820D01*
X141080537Y-71185506D01*
X141001185Y-71088815D01*
X140904494Y-71009463D01*
X140794180Y-70950498D01*
X140721620Y-70928487D01*
X140853475Y-70796632D01*
X141015990Y-70553411D01*
X141127932Y-70283158D01*
X141185000Y-69996260D01*
X141185000Y-69703740D01*
X141127932Y-69416842D01*
X141015990Y-69146589D01*
X140853475Y-68903368D01*
X140646632Y-68696525D01*
X140472240Y-68580000D01*
X140646632Y-68463475D01*
X140853475Y-68256632D01*
X141015990Y-68013411D01*
X141127932Y-67743158D01*
X141185000Y-67456260D01*
X141185000Y-67163740D01*
X141127932Y-66876842D01*
X141015990Y-66606589D01*
X140853475Y-66363368D01*
X140646632Y-66156525D01*
X140472240Y-66040000D01*
X140646632Y-65923475D01*
X140853475Y-65716632D01*
X141015990Y-65473411D01*
X141127932Y-65203158D01*
X141185000Y-64916260D01*
X141185000Y-64623740D01*
X141127932Y-64336842D01*
X141015990Y-64066589D01*
X140853475Y-63823368D01*
X140646632Y-63616525D01*
X140472240Y-63500000D01*
X140646632Y-63383475D01*
X140853475Y-63176632D01*
X141015990Y-62933411D01*
X141127932Y-62663158D01*
X141185000Y-62376260D01*
X141185000Y-62083740D01*
X141127932Y-61796842D01*
X141015990Y-61526589D01*
X140853475Y-61283368D01*
X140646632Y-61076525D01*
X140472240Y-60960000D01*
X140646632Y-60843475D01*
X140853475Y-60636632D01*
X141015990Y-60393411D01*
X141127932Y-60123158D01*
X141185000Y-59836260D01*
X141185000Y-59543740D01*
X141127932Y-59256842D01*
X141015990Y-58986589D01*
X140853475Y-58743368D01*
X140646632Y-58536525D01*
X140472240Y-58420000D01*
X140646632Y-58303475D01*
X140853475Y-58096632D01*
X141015990Y-57853411D01*
X141127932Y-57583158D01*
X141185000Y-57296260D01*
X141185000Y-57003740D01*
X141127932Y-56716842D01*
X141015990Y-56446589D01*
X140853475Y-56203368D01*
X140646632Y-55996525D01*
X140472240Y-55880000D01*
X140646632Y-55763475D01*
X140853475Y-55556632D01*
X141015990Y-55313411D01*
X141127932Y-55043158D01*
X141185000Y-54756260D01*
X141185000Y-54463740D01*
X141127932Y-54176842D01*
X141015990Y-53906589D01*
X140853475Y-53663368D01*
X140646632Y-53456525D01*
X140403411Y-53294010D01*
X140133158Y-53182068D01*
X139846260Y-53125000D01*
X139553740Y-53125000D01*
X139266842Y-53182068D01*
X138996589Y-53294010D01*
X138753368Y-53456525D01*
X138546525Y-53663368D01*
X138384010Y-53906589D01*
X138272068Y-54176842D01*
X138215000Y-54463740D01*
X138215000Y-54756260D01*
X138272068Y-55043158D01*
X138384010Y-55313411D01*
X138546525Y-55556632D01*
X138753368Y-55763475D01*
X138927760Y-55880000D01*
X138753368Y-55996525D01*
X138546525Y-56203368D01*
X138384010Y-56446589D01*
X138272068Y-56716842D01*
X138215000Y-57003740D01*
X138215000Y-57296260D01*
X138272068Y-57583158D01*
X138384010Y-57853411D01*
X138546525Y-58096632D01*
X138753368Y-58303475D01*
X138927760Y-58420000D01*
X138753368Y-58536525D01*
X138546525Y-58743368D01*
X138384010Y-58986589D01*
X138272068Y-59256842D01*
X138215000Y-59543740D01*
X138215000Y-59836260D01*
X138272068Y-60123158D01*
X138384010Y-60393411D01*
X138546525Y-60636632D01*
X138753368Y-60843475D01*
X138927760Y-60960000D01*
X138753368Y-61076525D01*
X138546525Y-61283368D01*
X138384010Y-61526589D01*
X138272068Y-61796842D01*
X138215000Y-62083740D01*
X138215000Y-62376260D01*
X138272068Y-62663158D01*
X138384010Y-62933411D01*
X138546525Y-63176632D01*
X138753368Y-63383475D01*
X138927760Y-63500000D01*
X138753368Y-63616525D01*
X138546525Y-63823368D01*
X138384010Y-64066589D01*
X138272068Y-64336842D01*
X138215000Y-64623740D01*
X138215000Y-64916260D01*
X138272068Y-65203158D01*
X138384010Y-65473411D01*
X138546525Y-65716632D01*
X138753368Y-65923475D01*
X138927760Y-66040000D01*
X138753368Y-66156525D01*
X138546525Y-66363368D01*
X138384010Y-66606589D01*
X138272068Y-66876842D01*
X138215000Y-67163740D01*
X138215000Y-67456260D01*
X138272068Y-67743158D01*
X138384010Y-68013411D01*
X138546525Y-68256632D01*
X138753368Y-68463475D01*
X138927760Y-68580000D01*
X138753368Y-68696525D01*
X138546525Y-68903368D01*
X138384010Y-69146589D01*
X138272068Y-69416842D01*
X138215000Y-69703740D01*
X138215000Y-69996260D01*
X138272068Y-70283158D01*
X138384010Y-70553411D01*
X138546525Y-70796632D01*
X138678380Y-70928487D01*
X138605820Y-70950498D01*
X138495506Y-71009463D01*
X138398815Y-71088815D01*
X138319463Y-71185506D01*
X138260498Y-71295820D01*
X138224188Y-71415518D01*
X138211928Y-71540000D01*
X115518043Y-71540000D01*
X115453475Y-71443368D01*
X115246632Y-71236525D01*
X115072240Y-71120000D01*
X115246632Y-71003475D01*
X115453475Y-70796632D01*
X115615990Y-70553411D01*
X115727932Y-70283158D01*
X115785000Y-69996260D01*
X115785000Y-69703740D01*
X115727932Y-69416842D01*
X115615990Y-69146589D01*
X115453475Y-68903368D01*
X115246632Y-68696525D01*
X115072240Y-68580000D01*
X115246632Y-68463475D01*
X115453475Y-68256632D01*
X115615990Y-68013411D01*
X115727932Y-67743158D01*
X115785000Y-67456260D01*
X115785000Y-67163740D01*
X115727932Y-66876842D01*
X115615990Y-66606589D01*
X115453475Y-66363368D01*
X115246632Y-66156525D01*
X115072240Y-66040000D01*
X115246632Y-65923475D01*
X115453475Y-65716632D01*
X115615990Y-65473411D01*
X115727932Y-65203158D01*
X115785000Y-64916260D01*
X115785000Y-64623740D01*
X115727932Y-64336842D01*
X115615990Y-64066589D01*
X115453475Y-63823368D01*
X115246632Y-63616525D01*
X115072240Y-63500000D01*
X115246632Y-63383475D01*
X115453475Y-63176632D01*
X115615990Y-62933411D01*
X115727932Y-62663158D01*
X115785000Y-62376260D01*
X115785000Y-62083740D01*
X115727932Y-61796842D01*
X115615990Y-61526589D01*
X115453475Y-61283368D01*
X115246632Y-61076525D01*
X115072240Y-60960000D01*
X115246632Y-60843475D01*
X115453475Y-60636632D01*
X115615990Y-60393411D01*
X115727932Y-60123158D01*
X115785000Y-59836260D01*
X115785000Y-59543740D01*
X115727932Y-59256842D01*
X115615990Y-58986589D01*
X115453475Y-58743368D01*
X115246632Y-58536525D01*
X115072240Y-58420000D01*
X115246632Y-58303475D01*
X115453475Y-58096632D01*
X115615990Y-57853411D01*
X115727932Y-57583158D01*
X115785000Y-57296260D01*
X115785000Y-57003740D01*
X115727932Y-56716842D01*
X115615990Y-56446589D01*
X115453475Y-56203368D01*
X115321620Y-56071513D01*
X115394180Y-56049502D01*
X115504494Y-55990537D01*
X115601185Y-55911185D01*
X115680537Y-55814494D01*
X115739502Y-55704180D01*
X115775812Y-55584482D01*
X115788072Y-55460000D01*
X115788072Y-53760000D01*
X115775812Y-53635518D01*
X115739502Y-53515820D01*
X115680537Y-53405506D01*
X115601185Y-53308815D01*
X115504494Y-53229463D01*
X115394180Y-53170498D01*
X115274482Y-53134188D01*
X115150000Y-53121928D01*
X113450000Y-53121928D01*
X113325518Y-53134188D01*
X113205820Y-53170498D01*
X113095506Y-53229463D01*
X112998815Y-53308815D01*
X112919463Y-53405506D01*
X112860498Y-53515820D01*
X112824188Y-53635518D01*
X112811928Y-53760000D01*
X112420000Y-53760000D01*
X112420000Y-49110000D01*
X112811928Y-49110000D01*
X112824188Y-49234482D01*
X112860498Y-49354180D01*
X112919463Y-49464494D01*
X112998815Y-49561185D01*
X113095506Y-49640537D01*
X113205820Y-49699502D01*
X113325518Y-49735812D01*
X113450000Y-49748072D01*
X114014250Y-49745000D01*
X114173000Y-49586250D01*
X114173000Y-48387000D01*
X112973750Y-48387000D01*
X112815000Y-48545750D01*
X112811928Y-49110000D01*
X112420000Y-49110000D01*
X112420000Y-47410000D01*
X112811928Y-47410000D01*
X112815000Y-47974250D01*
X112973750Y-48133000D01*
X114173000Y-48133000D01*
X114173000Y-46933750D01*
X114427000Y-46933750D01*
X114427000Y-48133000D01*
X114447000Y-48133000D01*
X114447000Y-48387000D01*
X114427000Y-48387000D01*
X114427000Y-49586250D01*
X114585750Y-49745000D01*
X115150000Y-49748072D01*
X115274482Y-49735812D01*
X115394180Y-49699502D01*
X115504494Y-49640537D01*
X115601185Y-49561185D01*
X115680537Y-49464494D01*
X115739502Y-49354180D01*
X115761513Y-49281620D01*
X115893368Y-49413475D01*
X116136589Y-49575990D01*
X116406842Y-49687932D01*
X116693740Y-49745000D01*
X116986260Y-49745000D01*
X117273158Y-49687932D01*
X117543411Y-49575990D01*
X117786632Y-49413475D01*
X117993475Y-49206632D01*
X118155990Y-48963411D01*
X118267932Y-48693158D01*
X118325000Y-48406260D01*
X118325000Y-48113740D01*
X118267932Y-47826842D01*
X118155990Y-47556589D01*
X118058043Y-47410000D01*
X121701928Y-47410000D01*
X121701928Y-49110000D01*
X121714188Y-49234482D01*
X121750498Y-49354180D01*
X121809463Y-49464494D01*
X121888815Y-49561185D01*
X121985506Y-49640537D01*
X122095820Y-49699502D01*
X122215518Y-49735812D01*
X122340000Y-49748072D01*
X124040000Y-49748072D01*
X124164482Y-49735812D01*
X124284180Y-49699502D01*
X124394494Y-49640537D01*
X124491185Y-49561185D01*
X124570537Y-49464494D01*
X124629502Y-49354180D01*
X124651513Y-49281620D01*
X124783368Y-49413475D01*
X125026589Y-49575990D01*
X125296842Y-49687932D01*
X125583740Y-49745000D01*
X125876260Y-49745000D01*
X126163158Y-49687932D01*
X126433411Y-49575990D01*
X126676632Y-49413475D01*
X126883475Y-49206632D01*
X127000000Y-49032240D01*
X127116525Y-49206632D01*
X127323368Y-49413475D01*
X127566589Y-49575990D01*
X127836842Y-49687932D01*
X128123740Y-49745000D01*
X128416260Y-49745000D01*
X128703158Y-49687932D01*
X128973411Y-49575990D01*
X129216632Y-49413475D01*
X129423475Y-49206632D01*
X129540000Y-49032240D01*
X129656525Y-49206632D01*
X129863368Y-49413475D01*
X130106589Y-49575990D01*
X130376842Y-49687932D01*
X130663740Y-49745000D01*
X130956260Y-49745000D01*
X131243158Y-49687932D01*
X131513411Y-49575990D01*
X131756632Y-49413475D01*
X131963475Y-49206632D01*
X132125990Y-48963411D01*
X132237932Y-48693158D01*
X132295000Y-48406260D01*
X132295000Y-48113740D01*
X132237932Y-47826842D01*
X132125990Y-47556589D01*
X132028043Y-47410000D01*
X135671928Y-47410000D01*
X135671928Y-49110000D01*
X135684188Y-49234482D01*
X135720498Y-49354180D01*
X135779463Y-49464494D01*
X135858815Y-49561185D01*
X135955506Y-49640537D01*
X136065820Y-49699502D01*
X136185518Y-49735812D01*
X136310000Y-49748072D01*
X138010000Y-49748072D01*
X138134482Y-49735812D01*
X138254180Y-49699502D01*
X138364494Y-49640537D01*
X138461185Y-49561185D01*
X138540537Y-49464494D01*
X138599502Y-49354180D01*
X138621513Y-49281620D01*
X138753368Y-49413475D01*
X138996589Y-49575990D01*
X139266842Y-49687932D01*
X139553740Y-49745000D01*
X139846260Y-49745000D01*
X140133158Y-49687932D01*
X140403411Y-49575990D01*
X140646632Y-49413475D01*
X140853475Y-49206632D01*
X141015990Y-48963411D01*
X141127932Y-48693158D01*
X141185000Y-48406260D01*
X141185000Y-48113740D01*
X141127932Y-47826842D01*
X141015990Y-47556589D01*
X140853475Y-47313368D01*
X140646632Y-47106525D01*
X140403411Y-46944010D01*
X140133158Y-46832068D01*
X139846260Y-46775000D01*
X139553740Y-46775000D01*
X139266842Y-46832068D01*
X138996589Y-46944010D01*
X138753368Y-47106525D01*
X138621513Y-47238380D01*
X138599502Y-47165820D01*
X138540537Y-47055506D01*
X138461185Y-46958815D01*
X138364494Y-46879463D01*
X138254180Y-46820498D01*
X138134482Y-46784188D01*
X138010000Y-46771928D01*
X136310000Y-46771928D01*
X136185518Y-46784188D01*
X136065820Y-46820498D01*
X135955506Y-46879463D01*
X135858815Y-46958815D01*
X135779463Y-47055506D01*
X135720498Y-47165820D01*
X135684188Y-47285518D01*
X135671928Y-47410000D01*
X132028043Y-47410000D01*
X131963475Y-47313368D01*
X131756632Y-47106525D01*
X131513411Y-46944010D01*
X131243158Y-46832068D01*
X130956260Y-46775000D01*
X130663740Y-46775000D01*
X130376842Y-46832068D01*
X130106589Y-46944010D01*
X129863368Y-47106525D01*
X129656525Y-47313368D01*
X129540000Y-47487760D01*
X129423475Y-47313368D01*
X129216632Y-47106525D01*
X128973411Y-46944010D01*
X128703158Y-46832068D01*
X128416260Y-46775000D01*
X128123740Y-46775000D01*
X127836842Y-46832068D01*
X127566589Y-46944010D01*
X127323368Y-47106525D01*
X127116525Y-47313368D01*
X127000000Y-47487760D01*
X126883475Y-47313368D01*
X126676632Y-47106525D01*
X126433411Y-46944010D01*
X126163158Y-46832068D01*
X125876260Y-46775000D01*
X125583740Y-46775000D01*
X125296842Y-46832068D01*
X125026589Y-46944010D01*
X124783368Y-47106525D01*
X124651513Y-47238380D01*
X124629502Y-47165820D01*
X124570537Y-47055506D01*
X124491185Y-46958815D01*
X124394494Y-46879463D01*
X124284180Y-46820498D01*
X124164482Y-46784188D01*
X124040000Y-46771928D01*
X122340000Y-46771928D01*
X122215518Y-46784188D01*
X122095820Y-46820498D01*
X121985506Y-46879463D01*
X121888815Y-46958815D01*
X121809463Y-47055506D01*
X121750498Y-47165820D01*
X121714188Y-47285518D01*
X121701928Y-47410000D01*
X118058043Y-47410000D01*
X117993475Y-47313368D01*
X117786632Y-47106525D01*
X117543411Y-46944010D01*
X117273158Y-46832068D01*
X116986260Y-46775000D01*
X116693740Y-46775000D01*
X116406842Y-46832068D01*
X116136589Y-46944010D01*
X115893368Y-47106525D01*
X115761513Y-47238380D01*
X115739502Y-47165820D01*
X115680537Y-47055506D01*
X115601185Y-46958815D01*
X115504494Y-46879463D01*
X115394180Y-46820498D01*
X115274482Y-46784188D01*
X115150000Y-46771928D01*
X114585750Y-46775000D01*
X114427000Y-46933750D01*
X114173000Y-46933750D01*
X114014250Y-46775000D01*
X113450000Y-46771928D01*
X113325518Y-46784188D01*
X113205820Y-46820498D01*
X113095506Y-46879463D01*
X112998815Y-46958815D01*
X112919463Y-47055506D01*
X112860498Y-47165820D01*
X112824188Y-47285518D01*
X112811928Y-47410000D01*
X112420000Y-47410000D01*
X112420000Y-46514277D01*
X112425047Y-46462803D01*
X112430622Y-46444338D01*
X112439678Y-46427306D01*
X112451870Y-46412357D01*
X112466732Y-46400062D01*
X112483696Y-46390889D01*
X112502129Y-46385183D01*
X112551446Y-46380000D01*
X141445723Y-46380000D01*
X141497197Y-46385047D01*
%TD*%
M02*
