M48
; DRILL file {KiCad (5.1.6)-1} date 04/07/21 17:56:12
; FORMAT={-:-/ absolute / inch / decimal}
; #@! TF.CreationDate,2021-04-07T17:56:12+02:00
; #@! TF.GenerationSoftware,Kicad,Pcbnew,(5.1.6)-1
FMAT,2
INCH
T1C0.0157
T2C0.0394
%
G90
G05
T1
X4.63Y-2.02
X4.75Y-2.59
X4.925Y-3.075
X5.2Y-3.235
T2
X5.4Y-1.9
X5.5Y-1.9
X4.5Y-2.15
X4.5Y-2.25
X4.5Y-2.35
X4.5Y-2.45
X4.5Y-2.55
X4.5Y-2.65
X4.5Y-2.75
X4.5Y-2.85
X4.85Y-1.9
X4.95Y-1.9
X5.05Y-1.9
X5.15Y-1.9
X4.5Y-1.9
X4.6Y-1.9
X5.5Y-2.15
X5.5Y-2.25
X5.5Y-2.35
X5.5Y-2.45
X5.5Y-2.55
X5.5Y-2.65
X5.5Y-2.75
X5.5Y-2.85
T0
M30
